<?xml version="1.0" encoding="UTF-8"?>
<!DOCTYPE svg PUBLIC "-//W3C//DTD SVG 1.1//EN" "http://www.w3.org/Graphics/SVG/1.1/DTD/svg11.dtd">
<!-- Creator: CorelDRAW 2018 -->
<svg xmlns="http://www.w3.org/2000/svg" xml:space="preserve" width="46.299mm" height="8.7002mm" version="1.1" style="shape-rendering:geometricPrecision; text-rendering:geometricPrecision; image-rendering:optimizeQuality; fill-rule:evenodd; clip-rule:evenodd"
viewBox="0 0 2797.91 525.76"
 xmlns:xlink="http://www.w3.org/1999/xlink">
 <defs>
  <style type="text/css">
   <![CDATA[
    .str0 {stroke:white;stroke-width:4.6;stroke-miterlimit:22.9256}
    .fil1 {fill:none;fill-rule:nonzero}
    .fil0 {fill:white;fill-rule:nonzero}
   ]]>
  </style>
 </defs>
 <g id="Слой_x0020_1">
  <metadata id="CorelCorpID_0Corel-Layer"/>
  <g>
   <path class="fil0" d="M430.3 14.1l-423.24 0 0 -14.1 423.24 0 7.05 7.05 -7.05 7.05zm0 -14.1l7.05 0 0 7.05 -7.05 -7.05zm-7.05 518.71l0 -511.66 14.1 0 0 511.66 -7.05 7.05 -7.05 -7.05zm14.1 0l0 7.05 -7.05 0 7.05 -7.05zm-430.3 -7.05l423.24 0 0 14.1 -423.24 0 -7.05 -7.05 7.05 -7.05zm0 14.1l-7.05 0 0 -7.05 7.05 7.05zm7.05 -518.71l0 511.66 -14.1 0 0 -511.66 7.05 -7.05 7.05 7.05zm-14.1 0l0 -7.05 7.05 0 -7.05 7.05zm86.7 247.35l-83.43 -52.96 7.57 -11.92 83.43 52.96 0.3 11.71 -7.87 0.21zm7.87 -0.21l-3.87 2.74 -4 -2.54 7.87 -0.21zm337.99 -239.86l-337.99 239.86 -8.17 -11.51 337.99 -239.86 8.17 11.51zm-346.64 68.81l-83.43 -70.71 9.13 -10.77 83.43 70.71 -3.14 12.29 -5.99 -1.52zm5.99 1.52l-3.37 0.69 -2.62 -2.22 5.99 1.52zm337.71 -69.67l-337.71 69.67 -2.85 -13.81 337.71 -69.67 2.85 13.81zm-343.1 155.3l-83.43 -56.6 7.92 -11.68 83.43 56.6 -1 12.24 -6.91 -0.57zm6.91 0.57l-3.62 1.67 -3.29 -2.24 6.91 0.57zm337.99 -155.88l-337.99 155.88 -5.91 -12.81 337.99 -155.88 5.91 12.81z"/>
  </g>
  <polygon class="fil0" points="592.92,304.5 592.92,92.49 738.34,92.49 738.34,143.25 651.15,143.25 651.15,178.49 722.22,178.49 722.22,225.66 651.15,225.66 651.15,304.5 "/>
  <path id="1" class="fil0" d="M833.7 304.5l0 -212.01 97.34 0c10.35,0 19.91,2.14 28.67,6.42 8.76,4.28 16.27,9.85 22.54,16.72 6.27,6.87 11.2,14.73 14.78,23.59 3.58,8.86 5.37,17.77 5.37,26.72 0,12.35 -2.68,23.84 -8.06,34.49 -5.37,10.65 -12.84,19.36 -22.4,26.13l44.79 77.93 -65.69 0 -37.33 -65.1 -21.8 0 0 65.1 -58.23 0zm58.23 -115.85l36.73 0c3.58,0 6.91,-1.99 10,-5.98 3.09,-3.98 4.63,-9.55 4.63,-16.72 0,-7.37 -1.79,-12.99 -5.37,-16.87 -3.58,-3.89 -7.17,-5.83 -10.75,-5.83l-35.24 0 0 45.39z"/>
  <polygon id="2" class="fil0" points="1259.02,253.73 1259.02,304.5 1107.93,304.5 1107.93,92.49 1256.33,92.49 1256.33,143.25 1166.16,143.25 1166.16,173.11 1243.19,173.11 1243.19,220.29 1166.16,220.29 1166.16,253.73 "/>
  <polygon id="3" class="fil0" points="1509.95,253.73 1509.95,304.5 1358.86,304.5 1358.86,92.49 1507.26,92.49 1507.26,143.25 1417.09,143.25 1417.09,173.11 1494.12,173.11 1494.12,220.29 1417.09,220.29 1417.09,253.73 "/>
  <path id="4" class="fil0" d="M1738.19 161.77c-5.97,-3.58 -12.15,-6.77 -18.52,-9.56 -5.37,-2.39 -11.4,-4.62 -18.06,-6.71 -6.67,-2.09 -13.19,-3.14 -19.56,-3.14 -5.18,0 -9.31,0.8 -12.39,2.39 -3.09,1.6 -4.63,4.28 -4.63,8.06 0,2.79 0.89,5.08 2.69,6.87 1.79,1.79 4.38,3.43 7.76,4.93 3.38,1.49 7.52,2.94 12.39,4.33 4.88,1.4 10.4,3.09 16.57,5.08 9.75,2.99 18.56,6.27 26.43,9.86 7.86,3.58 14.58,7.81 20.15,12.69 5.58,4.88 9.86,10.8 12.84,17.77 2.99,6.97 4.48,15.43 4.48,25.38 0,12.74 -2.34,23.44 -7.02,32.1 -4.68,8.66 -10.85,15.58 -18.51,20.76 -7.67,5.17 -16.32,8.91 -25.98,11.19 -9.66,2.29 -19.36,3.44 -29.12,3.44 -7.76,0 -15.72,-0.6 -23.89,-1.79 -8.16,-1.19 -16.27,-2.88 -24.34,-5.08 -8.06,-2.19 -15.82,-4.77 -23.29,-7.76 -7.46,-2.99 -14.38,-6.38 -20.75,-10.15l25.09 -51.06c6.97,4.38 14.23,8.26 21.8,11.65 6.37,2.99 13.58,5.67 21.65,8.06 8.06,2.39 16.27,3.58 24.64,3.58 6.37,0 10.8,-0.85 13.28,-2.54 2.49,-1.69 3.73,-3.93 3.73,-6.71 0,-2.99 -1.24,-5.52 -3.73,-7.61 -2.48,-2.09 -5.92,-3.93 -10.3,-5.52 -4.38,-1.6 -9.41,-3.19 -15.08,-4.78 -5.67,-1.6 -11.69,-3.48 -18.06,-5.67 -9.35,-3.18 -17.42,-6.62 -24.18,-10.3 -6.77,-3.68 -12.35,-7.86 -16.72,-12.54 -4.38,-4.68 -7.61,-10 -9.71,-15.97 -2.09,-5.97 -3.14,-12.84 -3.14,-20.61 0,-11.74 2.14,-22.09 6.42,-31.05 4.28,-8.96 10.1,-16.43 17.47,-22.4 7.37,-5.97 15.78,-10.5 25.23,-13.58 9.46,-3.09 19.46,-4.63 30.01,-4.63 7.77,0 15.33,0.74 22.69,2.24 7.37,1.49 14.49,3.38 21.35,5.67 6.87,2.29 13.29,4.78 19.26,7.46 5.97,2.69 11.35,5.23 16.12,7.61l-25.08 48.08z"/>
  <polygon id="5" class="fil0" points="2031.83,143.25 1970.92,143.25 1970.92,304.5 1912.69,304.5 1912.69,143.25 1851.48,143.25 1851.48,92.49 2031.83,92.49 "/>
  <polygon id="6" class="fil0" points="2168.7,92.49 2206.62,184.16 2245.44,92.49 2308.74,92.49 2235.59,234.32 2235.59,304.5 2177.66,304.5 2177.66,233.73 2105.7,92.49 "/>
  <polygon id="7" class="fil0" points="2397.25,304.5 2397.25,92.49 2455.47,92.49 2455.47,253.73 2551.62,253.73 2551.62,304.5 "/>
  <polygon id="8" class="fil0" points="2795.68,253.73 2795.68,304.5 2644.6,304.5 2644.6,92.49 2792.99,92.49 2792.99,143.25 2702.82,143.25 2702.82,173.11 2779.85,173.11 2779.85,220.29 2702.82,220.29 2702.82,253.73 "/>
  <path class="fil0 str0" d="M245.7 256.45l0 11.9c-16.44,0 -30.4,5.67 -41.88,17.01 -11.48,11.34 -17.22,25.65 -17.22,42.95l0 111.82 59.53 0 0 11.9 -59.53 0 0 66.67 -13.6 0 0 -190.4c0,-20.98 7.08,-38.2 21.26,-51.66 14.17,-13.46 31.32,-20.2 51.45,-20.2z"/>
  <path class="fil0 str0" d="M311.82 335.97c-7.37,0 -13.89,2.41 -19.56,7.23 -5.67,4.82 -8.5,10.77 -8.5,17.86 0,7.08 3.19,13.6 9.57,19.56 6.38,5.95 14.03,11.41 22.96,16.38 8.93,4.96 17.92,10.27 26.99,15.94 9.07,5.67 16.79,12.9 23.18,21.69 6.38,8.78 9.57,18.84 9.57,30.18 0,16.73 -6.31,30.98 -18.92,42.74 -4.97,4.64 -10.36,8.36 -16.16,11.18l-59.23 0 -2 -0.98c-9.78,-4.96 -16.93,-11.55 -21.47,-19.77l0 -20.4c10.77,23.81 28.06,35.71 51.88,35.71 14.73,0 27.14,-4.54 37.2,-13.6 10.06,-9.08 15.09,-19.21 15.09,-30.41 0,-11.19 -3.18,-20.61 -9.57,-28.28 -6.38,-7.65 -14.1,-14.17 -23.17,-19.56 -9.08,-5.38 -18.07,-10.7 -27,-15.95 -8.93,-5.24 -16.58,-11.62 -22.96,-19.13 -6.38,-7.51 -9.57,-16.3 -9.57,-26.36 0,-10.06 4.04,-18.56 12.12,-25.51 8.08,-6.94 18.49,-10.41 31.25,-10.41 12.76,0 23.67,4.96 32.74,14.88l0 17.43c-9.06,-13.61 -20.55,-20.41 -34.43,-20.41z"/>
  <path class="fil0" d="M593.72 484.27l0 -78.83 32.78 0c3.47,0 6.66,0.73 9.58,2.16 2.92,1.44 5.42,3.37 7.53,5.78 2.11,2.41 3.75,5.11 4.93,8.1 1.18,3 1.78,6.05 1.78,9.16 0,3.26 -0.56,6.4 -1.67,9.44 -1.1,3.03 -2.67,5.73 -4.7,8.1 -2.03,2.37 -4.47,4.25 -7.31,5.66 -2.85,1.41 -6,2.11 -9.47,2.11l-23.48 0 0 28.31 -9.97 0zm9.97 -37.2l22.92 0c2.07,0 3.93,-0.42 5.59,-1.28 1.67,-0.85 3.08,-2.04 4.27,-3.55 1.18,-1.52 2.11,-3.28 2.77,-5.28 0.66,-2 1,-4.11 1,-6.33 0,-2.3 -0.39,-4.44 -1.16,-6.44 -0.77,-2 -1.81,-3.73 -3.1,-5.22 -1.3,-1.48 -2.81,-2.63 -4.54,-3.44 -1.73,-0.82 -3.57,-1.22 -5.48,-1.22l-22.26 0 0 32.75z"/>
  <path id="1" class="fil0" d="M696.38 405.43l8.42 0 32.11 78.83 -10.63 0 -9.3 -23.1 -33.01 0 -9.19 23.1 -10.63 0 32.22 -78.83zm18.38 47.96l-14.18 -36.42 -14.62 36.42 28.8 0z"/>
  <path id="2" class="fil0" d="M757.4 414.76c2.5,-3.34 5.48,-5.81 8.91,-7.44 3.43,-1.63 7.69,-2.45 12.79,-2.45 7.31,0 12.97,1.6 17,4.77 4.02,3.18 6.03,7.81 6.03,13.88 0,4.51 -1.1,8.38 -3.32,11.6 -2.21,3.22 -5.32,5.31 -9.3,6.27 4.87,0.59 8.78,2.56 11.74,5.89 2.95,3.33 4.43,7.66 4.43,12.99 0,3.55 -0.68,6.83 -2.05,9.83 -1.37,3 -3.27,5.59 -5.7,7.78 -2.44,2.18 -5.32,3.89 -8.64,5.11 -3.32,1.22 -6.94,1.83 -10.85,1.83 -5.24,0 -9.89,-1.08 -13.95,-3.22 -4.06,-2.15 -7.16,-5.18 -9.31,-9.11l7.98 -5.88c1.7,2.81 3.8,5.03 6.31,6.66 2.51,1.63 5.65,2.44 9.42,2.44 2.44,0 4.67,-0.37 6.7,-1.11 2.03,-0.74 3.78,-1.76 5.26,-3.06 1.47,-1.29 2.64,-2.85 3.49,-4.66 0.85,-1.81 1.27,-3.8 1.27,-5.94 0,-4.67 -1.86,-8.35 -5.59,-11.05 -3.73,-2.71 -8.92,-4.05 -15.56,-4.05l-5.98 0 0 -8.88 5.98 0c5.54,0 9.89,-1.11 13.07,-3.33 3.17,-2.22 4.76,-5.33 4.76,-9.32 0,-3.63 -1.23,-6.33 -3.7,-8.11 -2.48,-1.78 -5.59,-2.67 -9.36,-2.67 -3.32,0 -6.31,0.65 -8.97,1.95 -2.66,1.29 -4.73,3.12 -6.2,5.49l-6.64 -6.21z"/>
  <path id="3" class="fil0" d="M835.25 484.27l0 -78.83 32.78 0c3.47,0 6.66,0.73 9.58,2.16 2.91,1.44 5.42,3.37 7.52,5.78 2.12,2.41 3.75,5.11 4.93,8.1 1.18,3 1.78,6.05 1.78,9.16 0,3.26 -0.56,6.4 -1.67,9.44 -1.1,3.03 -2.68,5.73 -4.7,8.1 -2.03,2.37 -4.47,4.25 -7.31,5.66 -2.84,1.41 -5.99,2.11 -9.46,2.11l-23.48 0 0 28.31 -9.97 0zm9.97 -37.2l22.92 0c2.07,0 3.93,-0.42 5.59,-1.28 1.67,-0.85 3.08,-2.04 4.27,-3.55 1.18,-1.52 2.11,-3.28 2.77,-5.28 0.66,-2 1,-4.11 1,-6.33 0,-2.3 -0.39,-4.44 -1.17,-6.44 -0.77,-2 -1.81,-3.73 -3.09,-5.22 -1.3,-1.48 -2.81,-2.63 -4.54,-3.44 -1.73,-0.82 -3.57,-1.22 -5.48,-1.22l-22.26 0 0 32.75z"/>
  <path id="4" class="fil0" d="M937.91 405.43l8.42 0 32.11 78.83 -10.63 0 -9.3 -23.1 -33.01 0 -9.19 23.1 -10.63 0 32.22 -78.83zm18.38 47.96l-14.18 -36.42 -14.62 36.42 28.8 0z"/>
  <path id="5" class="fil0" d="M1004.58 405.43l55.26 0 0 8.88 -45.29 0 0 23.54 26.24 0c3.18,0 6.15,0.5 8.92,1.5 2.77,1 5.2,2.46 7.31,4.39 2.11,1.92 3.77,4.35 4.99,7.27 1.22,2.92 1.83,6.27 1.83,10.05 0,3.78 -0.6,7.12 -1.83,10.05 -1.21,2.92 -2.86,5.35 -4.93,7.27 -2.07,1.93 -4.5,3.39 -7.3,4.39 -2.81,1 -5.8,1.5 -8.98,1.5l-36.21 0 0 -78.83zm36.21 70.17c4.22,0 7.42,-1.32 9.64,-3.94 2.21,-2.63 3.32,-6.16 3.32,-10.61 0,-4.44 -1.09,-7.98 -3.27,-10.61 -2.18,-2.62 -5.4,-3.94 -9.69,-3.94l-26.24 0 0 29.09 26.24 0z"/>
  <path id="6" class="fil0" d="M1124.63 484.82c-5.54,0 -10.58,-1.13 -15.11,-3.39 -4.54,-2.25 -8.44,-5.25 -11.69,-8.99 -3.25,-3.73 -5.76,-8.01 -7.53,-12.82 -1.77,-4.81 -2.66,-9.74 -2.66,-14.76 0,-5.26 0.94,-10.29 2.82,-15.1 1.89,-4.81 4.49,-9.07 7.81,-12.77 3.32,-3.7 7.25,-6.64 11.79,-8.83 4.54,-2.18 9.46,-3.28 14.78,-3.28 5.54,0 10.56,1.17 15.07,3.5 4.5,2.33 8.38,5.38 11.63,9.16 3.25,3.78 5.76,8.05 7.53,12.82 1.77,4.77 2.65,9.64 2.65,14.6 0,5.26 -0.94,10.29 -2.82,15.1 -1.89,4.81 -4.47,9.05 -7.75,12.71 -3.29,3.67 -7.2,6.59 -11.74,8.77 -4.54,2.18 -9.47,3.28 -14.78,3.28zm-26.91 -39.97c0,3.99 0.65,7.86 1.93,11.6 1.29,3.73 3.12,7.05 5.49,9.93 2.36,2.89 5.2,5.18 8.53,6.88 3.32,1.7 7.01,2.56 11.07,2.56 4.21,0 7.98,-0.91 11.29,-2.72 3.32,-1.82 6.15,-4.19 8.47,-7.11 2.33,-2.92 4.1,-6.24 5.31,-9.94 1.22,-3.7 1.84,-7.44 1.84,-11.21 0,-4 -0.65,-7.87 -1.95,-11.6 -1.29,-3.74 -3.14,-7.03 -5.54,-9.89 -2.4,-2.85 -5.24,-5.12 -8.52,-6.83 -3.29,-1.7 -6.93,-2.55 -10.91,-2.55 -4.21,0 -7.97,0.89 -11.29,2.67 -3.32,1.78 -6.15,4.11 -8.47,6.99 -2.33,2.89 -4.12,6.18 -5.37,9.89 -1.25,3.7 -1.88,7.48 -1.88,11.32z"/>
  <polygon id="7" class="fil0" points="1245.22,414.32 1218.09,414.32 1218.09,484.27 1208.13,484.27 1208.13,414.32 1180.99,414.32 1180.99,405.43 1245.22,405.43 "/>
  <polygon id="8" class="fil0" points="1282.1,439.74 1292.07,439.74 1317.87,405.43 1329.28,405.43 1301.26,443.52 1331.82,484.27 1320.42,484.27 1293.18,448.62 1282.1,448.62 1282.1,484.27 1272.13,484.27 1272.13,405.43 1282.1,405.43 "/>
  <path id="9" class="fil0" d="M1380.22 405.43l8.42 0 32.11 78.83 -10.64 0 -9.3 -23.1 -33 0 -9.19 23.1 -10.63 0 32.22 -78.83zm18.38 47.96l-14.18 -36.42 -14.61 36.42 28.79 0z"/>
  <path id="10" class="fil0" d="M1497.61 444.3c0,-4.74 0.82,-9.46 2.49,-14.16 1.66,-4.7 4.1,-8.92 7.31,-12.65 3.21,-3.74 7.14,-6.76 11.79,-9.05 4.65,-2.29 9.93,-3.44 15.84,-3.44 7.01,0 13.04,1.59 18.05,4.77 5.02,3.18 8.75,7.32 11.19,12.43l-7.86 5.11c-1.18,-2.52 -2.6,-4.63 -4.27,-6.33 -1.66,-1.7 -3.46,-3.07 -5.43,-4.1 -1.96,-1.04 -3.96,-1.78 -6.03,-2.22 -2.07,-0.44 -4.1,-0.66 -6.09,-0.66 -4.36,0 -8.22,0.91 -11.57,2.72 -3.36,1.81 -6.19,4.18 -8.47,7.11 -2.29,2.92 -4.01,6.22 -5.15,9.88 -1.14,3.66 -1.72,7.35 -1.72,11.05 0,4.15 0.69,8.09 2.05,11.83 1.37,3.73 3.27,7.05 5.71,9.93 2.44,2.89 5.32,5.19 8.64,6.88 3.32,1.7 6.94,2.56 10.85,2.56 2.07,0 4.19,-0.26 6.37,-0.78 2.18,-0.51 4.26,-1.35 6.25,-2.5 1.99,-1.15 3.86,-2.59 5.6,-4.33 1.73,-1.73 3.15,-3.83 4.26,-6.27l8.3 4.56c-1.25,2.96 -3,5.57 -5.26,7.83 -2.25,2.26 -4.8,4.16 -7.64,5.72 -2.84,1.55 -5.85,2.74 -9.02,3.55 -3.18,0.82 -6.28,1.22 -9.3,1.22 -5.39,0 -10.34,-1.18 -14.84,-3.55 -4.5,-2.37 -8.4,-5.46 -11.69,-9.27 -3.28,-3.81 -5.83,-8.14 -7.64,-12.99 -1.81,-4.85 -2.71,-9.79 -2.71,-14.82z"/>
  <path id="11" class="fil0" d="M1616.32 405.43l8.42 0 32.11 78.83 -10.63 0 -9.3 -23.1 -33.01 0 -9.19 23.1 -10.64 0 32.22 -78.83zm18.39 47.96l-14.18 -36.42 -14.62 36.42 28.8 0z"/>
  <path id="12" class="fil0" d="M1733.49 382.56c-0.15,4.15 -1.75,7.35 -4.82,9.61 -3.06,2.25 -7.06,3.38 -12.01,3.38 -4.95,0 -8.95,-1.13 -12.02,-3.38 -3.06,-2.26 -4.67,-5.46 -4.82,-9.61l5.87 0c0,2 1.07,3.76 3.21,5.28 2.14,1.52 4.76,2.28 7.86,2.28 2.96,0 5.43,-0.73 7.42,-2.17 1.99,-1.44 3.18,-3.23 3.54,-5.38l5.77 0zm-40.54 86.5l45.52 -63.62 8.19 0 0 78.83 -9.97 0 0 -62.51 -44.74 62.51 -8.97 0 0 -78.83 9.97 0 0 63.62z"/>
  <polygon id="13" class="fil0" points="1837.81,414.32 1810.67,414.32 1810.67,484.27 1800.71,484.27 1800.71,414.32 1773.58,414.32 1773.58,405.43 1837.81,405.43 "/>
  <path id="14" class="fil0" d="M1894.18 484.82c-5.54,0 -10.58,-1.13 -15.12,-3.39 -4.54,-2.25 -8.44,-5.25 -11.69,-8.99 -3.25,-3.73 -5.75,-8.01 -7.53,-12.82 -1.77,-4.81 -2.65,-9.74 -2.65,-14.76 0,-5.26 0.94,-10.29 2.82,-15.1 1.89,-4.81 4.49,-9.07 7.81,-12.77 3.32,-3.7 7.25,-6.64 11.79,-8.83 4.54,-2.18 9.47,-3.28 14.79,-3.28 5.54,0 10.56,1.17 15.06,3.5 4.5,2.33 8.38,5.38 11.63,9.16 3.25,3.78 5.77,8.05 7.54,12.82 1.76,4.77 2.65,9.64 2.65,14.6 0,5.26 -0.94,10.29 -2.82,15.1 -1.88,4.81 -4.47,9.05 -7.75,12.71 -3.28,3.67 -7.2,6.59 -11.74,8.77 -4.54,2.18 -9.47,3.28 -14.78,3.28zm-26.92 -39.97c0,3.99 0.65,7.86 1.93,11.6 1.3,3.73 3.12,7.05 5.49,9.93 2.36,2.89 5.2,5.18 8.53,6.88 3.32,1.7 7.01,2.56 11.08,2.56 4.21,0 7.97,-0.91 11.29,-2.72 3.32,-1.82 6.15,-4.19 8.47,-7.11 2.33,-2.92 4.1,-6.24 5.32,-9.94 1.21,-3.7 1.83,-7.44 1.83,-11.21 0,-4 -0.65,-7.87 -1.94,-11.6 -1.29,-3.74 -3.14,-7.03 -5.54,-9.89 -2.4,-2.85 -5.23,-5.12 -8.52,-6.83 -3.29,-1.7 -6.93,-2.55 -10.91,-2.55 -4.21,0 -7.98,0.89 -11.29,2.67 -3.32,1.78 -6.15,4.11 -8.48,6.99 -2.33,2.89 -4.12,6.18 -5.37,9.89 -1.25,3.7 -1.88,7.48 -1.88,11.32z"/>
  <path id="15" class="fil0" d="M2018.76 463.95c0,3.03 -0.61,5.81 -1.83,8.33 -1.22,2.51 -2.88,4.66 -4.99,6.44 -2.1,1.78 -4.54,3.15 -7.31,4.11 -2.77,0.96 -5.74,1.44 -8.91,1.44l-37.32 0 0 -78.83 39.09 0c2.73,0 5.2,0.59 7.42,1.78 2.21,1.18 4.09,2.72 5.65,4.61 1.55,1.89 2.74,4.03 3.6,6.44 0.85,2.41 1.27,4.83 1.27,7.28 0,3.92 -0.97,7.55 -2.93,10.88 -1.95,3.33 -4.74,5.81 -8.36,7.44 4.5,1.34 8.07,3.8 10.69,7.38 2.62,3.59 3.93,7.83 3.93,12.71zm-10.08 -1.78c0,-1.78 -0.31,-3.5 -0.94,-5.17 -0.63,-1.66 -1.48,-3.12 -2.54,-4.38 -1.08,-1.26 -2.34,-2.26 -3.82,-3 -1.48,-0.74 -3.11,-1.11 -4.88,-1.11l-28.12 0 0 27.09 27.35 0c1.84,0 3.54,-0.37 5.09,-1.11 1.55,-0.74 2.91,-1.72 4.1,-2.94 1.18,-1.22 2.1,-2.65 2.77,-4.27 0.66,-1.63 0.99,-3.33 0.99,-5.11zm-40.3 -48.08l0 26.32 25.02 0c1.77,0 3.39,-0.36 4.87,-1.06 1.47,-0.7 2.76,-1.64 3.82,-2.83 1.08,-1.18 1.92,-2.57 2.55,-4.16 0.63,-1.6 0.94,-3.28 0.94,-5.05 0,-1.86 -0.3,-3.59 -0.89,-5.22 -0.59,-1.63 -1.38,-3.03 -2.38,-4.22 -0.99,-1.18 -2.22,-2.11 -3.65,-2.77 -1.44,-0.67 -2.97,-1 -4.6,-1l-25.69 0z"/>
  <polygon id="16" class="fil0" points="2106.57,405.43 2169.26,405.43 2169.26,484.27 2159.28,484.27 2159.28,414.32 2116.54,414.32 2116.54,484.27 2106.57,484.27 "/>
  <path id="17" class="fil0" d="M2235.71 484.82c-5.54,0 -10.58,-1.13 -15.12,-3.39 -4.54,-2.25 -8.44,-5.25 -11.69,-8.99 -3.25,-3.73 -5.75,-8.01 -7.53,-12.82 -1.77,-4.81 -2.66,-9.74 -2.66,-14.76 0,-5.26 0.94,-10.29 2.82,-15.1 1.89,-4.81 4.49,-9.07 7.81,-12.77 3.32,-3.7 7.25,-6.64 11.79,-8.83 4.54,-2.18 9.47,-3.28 14.78,-3.28 5.54,0 10.56,1.17 15.07,3.5 4.5,2.33 8.38,5.38 11.63,9.16 3.25,3.78 5.76,8.05 7.54,12.82 1.76,4.77 2.65,9.64 2.65,14.6 0,5.26 -0.94,10.29 -2.82,15.1 -1.88,4.81 -4.47,9.05 -7.75,12.71 -3.28,3.67 -7.2,6.59 -11.74,8.77 -4.54,2.18 -9.47,3.28 -14.78,3.28zm-26.92 -39.97c0,3.99 0.65,7.86 1.93,11.6 1.3,3.73 3.12,7.05 5.49,9.93 2.36,2.89 5.2,5.18 8.53,6.88 3.32,1.7 7.01,2.56 11.07,2.56 4.21,0 7.98,-0.91 11.3,-2.72 3.32,-1.82 6.15,-4.19 8.47,-7.11 2.33,-2.92 4.1,-6.24 5.32,-9.94 1.21,-3.7 1.83,-7.44 1.83,-11.21 0,-4 -0.65,-7.87 -1.94,-11.6 -1.29,-3.74 -3.14,-7.03 -5.54,-9.89 -2.4,-2.85 -5.24,-5.12 -8.52,-6.83 -3.29,-1.7 -6.93,-2.55 -10.91,-2.55 -4.21,0 -7.97,0.89 -11.29,2.67 -3.32,1.78 -6.15,4.11 -8.47,6.99 -2.33,2.89 -4.12,6.18 -5.37,9.89 -1.25,3.7 -1.88,7.48 -1.88,11.32z"/>
  <path id="18" class="fil0" d="M2291.3 475.38l0.99 0c1.55,-0.07 3.03,-0.35 4.43,-0.83 1.41,-0.48 2.7,-1.35 3.88,-2.6 1.18,-1.26 2.29,-3.02 3.32,-5.28 1.04,-2.26 1.99,-5.16 2.88,-8.71 0.89,-3.55 1.68,-7.87 2.38,-12.94 0.7,-5.07 1.34,-11.08 1.93,-18.04l1.77 -21.54 41.64 0 0 69.95 12.18 0 0 29.53 -8.86 0 0 -20.65 -57.69 0 0 20.65 -8.86 0 0 -29.53zm53.26 0l0 -61.07 -22.37 0 -1.11 13.1c-1.11,13.25 -2.68,23.71 -4.71,31.36 -2.03,7.66 -4.74,13.2 -8.14,16.6l36.33 0z"/>
  <polygon id="19" class="fil0" points="2459.62,439.74 2469.59,439.74 2495.39,405.43 2506.8,405.43 2478.78,443.52 2509.34,484.27 2497.94,484.27 2470.69,448.62 2459.62,448.62 2459.62,484.27 2449.65,484.27 2449.65,405.43 2459.62,405.43 "/>
  <path id="20" class="fil0" d="M2553.97 427.42c-0.88,10.21 -1.99,18.95 -3.32,26.2 -1.33,7.25 -3.06,13.21 -5.2,17.88 -2.14,4.67 -4.71,8.09 -7.7,10.27 -2.99,2.18 -6.59,3.28 -10.79,3.28l-1.77 -9.66c1.55,-0.07 3.03,-0.35 4.43,-0.83 1.4,-0.48 2.7,-1.35 3.87,-2.6 1.18,-1.26 2.28,-3.02 3.32,-5.28 1.03,-2.26 1.99,-5.16 2.88,-8.71 0.88,-3.55 1.68,-7.87 2.38,-12.94 0.7,-5.07 1.35,-11.08 1.94,-18.04l1.77 -21.54 41.64 0 0 78.83 -9.97 0 0 -69.95 -22.37 0 -1.11 13.1z"/>
  <path id="21" class="fil0" d="M2681.1 484.82c-4.88,0 -9.34,-0.87 -13.4,-2.61 -4.06,-1.74 -7.6,-4.18 -10.63,-7.33 -3.03,-3.14 -5.46,-6.92 -7.31,-11.32 -1.84,-4.4 -2.96,-9.27 -3.32,-14.6l-14.18 0 0 35.31 -9.97 0 0 -78.83 9.97 0 0 34.65 14.29 0c0.44,-5.41 1.62,-10.27 3.54,-14.61 1.92,-4.33 4.43,-8.01 7.54,-11.05 3.09,-3.03 6.66,-5.38 10.68,-7.05 4.02,-1.67 8.36,-2.5 13.02,-2.5 5.31,0 10.16,1 14.56,3 4.39,2 8.16,4.79 11.29,8.39 3.14,3.59 5.58,7.83 7.31,12.71 1.73,4.89 2.6,10.22 2.6,15.99 0,6.07 -0.9,11.57 -2.71,16.49 -1.81,4.93 -4.32,9.11 -7.52,12.55 -3.21,3.44 -7.02,6.11 -11.42,8 -4.39,1.89 -9.17,2.83 -14.33,2.83zm-24.7 -39.97c0,4.88 0.59,9.23 1.78,13.04 1.18,3.81 2.85,7.05 5.03,9.72 2.18,2.67 4.78,4.7 7.81,6.11 3.03,1.4 6.42,2.11 10.19,2.11 3.99,0 7.58,-0.74 10.8,-2.22 3.21,-1.48 5.92,-3.59 8.13,-6.33 2.22,-2.74 3.92,-5.99 5.09,-9.77 1.18,-3.78 1.77,-8 1.77,-12.65 0,-4.89 -0.62,-9.23 -1.88,-13.05 -1.25,-3.81 -3.02,-7.03 -5.31,-9.66 -2.29,-2.63 -5,-4.64 -8.14,-6.05 -3.14,-1.41 -6.63,-2.11 -10.47,-2.11 -3.84,0 -7.29,0.74 -10.36,2.22 -3.06,1.48 -5.67,3.55 -7.81,6.22 -2.14,2.67 -3.78,5.9 -4.93,9.72 -1.14,3.81 -1.72,8.05 -1.72,12.71z"/>
  <path id="22" class="fil0" d="M2785.54 405.43l10.07 0 0 78.83 -10.07 0 0 -33.31c-1.26,0.45 -2.51,0.85 -3.77,1.22 -1.25,0.37 -2.62,0.69 -4.09,0.94 -1.47,0.26 -3.12,0.45 -4.93,0.56 -1.81,0.11 -3.86,0.17 -6.15,0.17 -4.57,0 -8.45,-0.69 -11.63,-2.05 -3.18,-1.37 -5.72,-3.28 -7.64,-5.72 -1.92,-2.45 -3.3,-5.31 -4.15,-8.61 -0.85,-3.29 -1.28,-6.87 -1.28,-10.71l0 -21.32 10.08 0 0 19.43c0,3.7 0.26,6.83 0.78,9.38 0.51,2.56 1.41,4.6 2.71,6.16 1.29,1.55 2.99,2.68 5.09,3.38 2.1,0.7 4.74,1.06 7.92,1.06 4.21,0 7.74,-0.39 10.57,-1.17 2.85,-0.78 5,-1.76 6.48,-2.94l0 -35.31z"/>
  <path id="23" class="fil1 str0" d="M593.72 484.27l0 -78.83 32.78 0c3.47,0 6.66,0.73 9.58,2.16 2.92,1.44 5.42,3.37 7.53,5.78 2.11,2.41 3.75,5.11 4.93,8.1 1.18,3 1.78,6.05 1.78,9.16 0,3.26 -0.56,6.4 -1.67,9.44 -1.1,3.03 -2.67,5.73 -4.7,8.1 -2.03,2.37 -4.47,4.25 -7.31,5.66 -2.85,1.41 -6,2.11 -9.47,2.11l-23.48 0 0 28.31 -9.97 0zm9.97 -37.2l22.92 0c2.07,0 3.93,-0.42 5.59,-1.28 1.67,-0.85 3.08,-2.04 4.27,-3.55 1.18,-1.52 2.11,-3.28 2.77,-5.28 0.66,-2 1,-4.11 1,-6.33 0,-2.3 -0.39,-4.44 -1.16,-6.44 -0.77,-2 -1.81,-3.73 -3.1,-5.22 -1.3,-1.48 -2.81,-2.63 -4.54,-3.44 -1.73,-0.82 -3.57,-1.22 -5.48,-1.22l-22.26 0 0 32.75z"/>
  <path id="24" class="fil1 str0" d="M696.38 405.43l8.42 0 32.11 78.83 -10.63 0 -9.3 -23.1 -33.01 0 -9.19 23.1 -10.63 0 32.22 -78.83zm18.38 47.96l-14.18 -36.42 -14.62 36.42 28.8 0z"/>
  <path id="25" class="fil1 str0" d="M757.4 414.76c2.5,-3.34 5.48,-5.81 8.91,-7.44 3.43,-1.63 7.69,-2.45 12.79,-2.45 7.31,0 12.97,1.6 17,4.77 4.02,3.18 6.03,7.81 6.03,13.88 0,4.51 -1.1,8.38 -3.32,11.6 -2.21,3.22 -5.32,5.31 -9.3,6.27 4.87,0.59 8.78,2.56 11.74,5.89 2.95,3.33 4.43,7.66 4.43,12.99 0,3.55 -0.68,6.83 -2.05,9.83 -1.37,3 -3.27,5.59 -5.7,7.78 -2.44,2.18 -5.32,3.89 -8.64,5.11 -3.32,1.22 -6.94,1.83 -10.85,1.83 -5.24,0 -9.89,-1.08 -13.95,-3.22 -4.06,-2.15 -7.16,-5.18 -9.31,-9.11l7.98 -5.88c1.7,2.81 3.8,5.03 6.31,6.66 2.51,1.63 5.65,2.44 9.42,2.44 2.44,0 4.67,-0.37 6.7,-1.11 2.03,-0.74 3.78,-1.76 5.26,-3.06 1.47,-1.29 2.64,-2.85 3.49,-4.66 0.85,-1.81 1.27,-3.8 1.27,-5.94 0,-4.67 -1.86,-8.35 -5.59,-11.05 -3.73,-2.71 -8.92,-4.05 -15.56,-4.05l-5.98 0 0 -8.88 5.98 0c5.54,0 9.89,-1.11 13.07,-3.33 3.17,-2.22 4.76,-5.33 4.76,-9.32 0,-3.63 -1.23,-6.33 -3.7,-8.11 -2.48,-1.78 -5.59,-2.67 -9.36,-2.67 -3.32,0 -6.31,0.65 -8.97,1.95 -2.66,1.29 -4.73,3.12 -6.2,5.49l-6.64 -6.21z"/>
  <path id="26" class="fil1 str0" d="M835.25 484.27l0 -78.83 32.78 0c3.47,0 6.66,0.73 9.58,2.16 2.91,1.44 5.42,3.37 7.52,5.78 2.12,2.41 3.75,5.11 4.93,8.1 1.18,3 1.78,6.05 1.78,9.16 0,3.26 -0.56,6.4 -1.67,9.44 -1.1,3.03 -2.68,5.73 -4.7,8.1 -2.03,2.37 -4.47,4.25 -7.31,5.66 -2.84,1.41 -5.99,2.11 -9.46,2.11l-23.48 0 0 28.31 -9.97 0zm9.97 -37.2l22.92 0c2.07,0 3.93,-0.42 5.59,-1.28 1.67,-0.85 3.08,-2.04 4.27,-3.55 1.18,-1.52 2.11,-3.28 2.77,-5.28 0.66,-2 1,-4.11 1,-6.33 0,-2.3 -0.39,-4.44 -1.17,-6.44 -0.77,-2 -1.81,-3.73 -3.09,-5.22 -1.3,-1.48 -2.81,-2.63 -4.54,-3.44 -1.73,-0.82 -3.57,-1.22 -5.48,-1.22l-22.26 0 0 32.75z"/>
  <path id="27" class="fil1 str0" d="M937.91 405.43l8.42 0 32.11 78.83 -10.63 0 -9.3 -23.1 -33.01 0 -9.19 23.1 -10.63 0 32.22 -78.83zm18.38 47.96l-14.18 -36.42 -14.62 36.42 28.8 0z"/>
  <path id="28" class="fil1 str0" d="M1004.58 405.43l55.26 0 0 8.88 -45.29 0 0 23.54 26.24 0c3.18,0 6.15,0.5 8.92,1.5 2.77,1 5.2,2.46 7.31,4.39 2.11,1.92 3.77,4.35 4.99,7.27 1.22,2.92 1.83,6.27 1.83,10.05 0,3.78 -0.6,7.12 -1.83,10.05 -1.21,2.92 -2.86,5.35 -4.93,7.27 -2.07,1.93 -4.5,3.39 -7.3,4.39 -2.81,1 -5.8,1.5 -8.98,1.5l-36.21 0 0 -78.83zm36.21 70.17c4.22,0 7.42,-1.32 9.64,-3.94 2.21,-2.63 3.32,-6.16 3.32,-10.61 0,-4.44 -1.09,-7.98 -3.27,-10.61 -2.18,-2.62 -5.4,-3.94 -9.69,-3.94l-26.24 0 0 29.09 26.24 0z"/>
  <path id="29" class="fil1 str0" d="M1124.63 484.82c-5.54,0 -10.58,-1.13 -15.11,-3.39 -4.54,-2.25 -8.44,-5.25 -11.69,-8.99 -3.25,-3.73 -5.76,-8.01 -7.53,-12.82 -1.77,-4.81 -2.66,-9.74 -2.66,-14.76 0,-5.26 0.94,-10.29 2.82,-15.1 1.89,-4.81 4.49,-9.07 7.81,-12.77 3.32,-3.7 7.25,-6.64 11.79,-8.83 4.54,-2.18 9.46,-3.28 14.78,-3.28 5.54,0 10.56,1.17 15.07,3.5 4.5,2.33 8.38,5.38 11.63,9.16 3.25,3.78 5.76,8.05 7.53,12.82 1.77,4.77 2.65,9.64 2.65,14.6 0,5.26 -0.94,10.29 -2.82,15.1 -1.89,4.81 -4.47,9.05 -7.75,12.71 -3.29,3.67 -7.2,6.59 -11.74,8.77 -4.54,2.18 -9.47,3.28 -14.78,3.28zm-26.91 -39.97c0,3.99 0.65,7.86 1.93,11.6 1.29,3.73 3.12,7.05 5.49,9.93 2.36,2.89 5.2,5.18 8.53,6.88 3.32,1.7 7.01,2.56 11.07,2.56 4.21,0 7.98,-0.91 11.29,-2.72 3.32,-1.82 6.15,-4.19 8.47,-7.11 2.33,-2.92 4.1,-6.24 5.31,-9.94 1.22,-3.7 1.84,-7.44 1.84,-11.21 0,-4 -0.65,-7.87 -1.95,-11.6 -1.29,-3.74 -3.14,-7.03 -5.54,-9.89 -2.4,-2.85 -5.24,-5.12 -8.52,-6.83 -3.29,-1.7 -6.93,-2.55 -10.91,-2.55 -4.21,0 -7.97,0.89 -11.29,2.67 -3.32,1.78 -6.15,4.11 -8.47,6.99 -2.33,2.89 -4.12,6.18 -5.37,9.89 -1.25,3.7 -1.88,7.48 -1.88,11.32z"/>
  <polygon id="30" class="fil1 str0" points="1245.22,414.32 1218.09,414.32 1218.09,484.27 1208.13,484.27 1208.13,414.32 1180.99,414.32 1180.99,405.43 1245.22,405.43 "/>
  <polygon id="31" class="fil1 str0" points="1282.1,439.74 1292.07,439.74 1317.87,405.43 1329.28,405.43 1301.26,443.52 1331.82,484.27 1320.42,484.27 1293.18,448.62 1282.1,448.62 1282.1,484.27 1272.13,484.27 1272.13,405.43 1282.1,405.43 "/>
  <path id="32" class="fil1 str0" d="M1380.22 405.43l8.42 0 32.11 78.83 -10.64 0 -9.3 -23.1 -33 0 -9.19 23.1 -10.63 0 32.22 -78.83zm18.38 47.96l-14.18 -36.42 -14.61 36.42 28.79 0z"/>
  <path id="33" class="fil1 str0" d="M1497.61 444.3c0,-4.74 0.82,-9.46 2.49,-14.16 1.66,-4.7 4.1,-8.92 7.31,-12.65 3.21,-3.74 7.14,-6.76 11.79,-9.05 4.65,-2.29 9.93,-3.44 15.84,-3.44 7.01,0 13.04,1.59 18.05,4.77 5.02,3.18 8.75,7.32 11.19,12.43l-7.86 5.11c-1.18,-2.52 -2.6,-4.63 -4.27,-6.33 -1.66,-1.7 -3.46,-3.07 -5.43,-4.1 -1.96,-1.04 -3.96,-1.78 -6.03,-2.22 -2.07,-0.44 -4.1,-0.66 -6.09,-0.66 -4.36,0 -8.22,0.91 -11.57,2.72 -3.36,1.81 -6.19,4.18 -8.47,7.11 -2.29,2.92 -4.01,6.22 -5.15,9.88 -1.14,3.66 -1.72,7.35 -1.72,11.05 0,4.15 0.69,8.09 2.05,11.83 1.37,3.73 3.27,7.05 5.71,9.93 2.44,2.89 5.32,5.19 8.64,6.88 3.32,1.7 6.94,2.56 10.85,2.56 2.07,0 4.19,-0.26 6.37,-0.78 2.18,-0.51 4.26,-1.35 6.25,-2.5 1.99,-1.15 3.86,-2.59 5.6,-4.33 1.73,-1.73 3.15,-3.83 4.26,-6.27l8.3 4.56c-1.25,2.96 -3,5.57 -5.26,7.83 -2.25,2.26 -4.8,4.16 -7.64,5.72 -2.84,1.55 -5.85,2.74 -9.02,3.55 -3.18,0.82 -6.28,1.22 -9.3,1.22 -5.39,0 -10.34,-1.18 -14.84,-3.55 -4.5,-2.37 -8.4,-5.46 -11.69,-9.27 -3.28,-3.81 -5.83,-8.14 -7.64,-12.99 -1.81,-4.85 -2.71,-9.79 -2.71,-14.82z"/>
  <path id="34" class="fil1 str0" d="M1616.32 405.43l8.42 0 32.11 78.83 -10.63 0 -9.3 -23.1 -33.01 0 -9.19 23.1 -10.64 0 32.22 -78.83zm18.39 47.96l-14.18 -36.42 -14.62 36.42 28.8 0z"/>
  <path id="35" class="fil1 str0" d="M1733.49 382.56c-0.15,4.15 -1.75,7.35 -4.82,9.61 -3.06,2.25 -7.06,3.38 -12.01,3.38 -4.95,0 -8.95,-1.13 -12.02,-3.38 -3.06,-2.26 -4.67,-5.46 -4.82,-9.61l5.87 0c0,2 1.07,3.76 3.21,5.28 2.14,1.52 4.76,2.28 7.86,2.28 2.96,0 5.43,-0.73 7.42,-2.17 1.99,-1.44 3.18,-3.23 3.54,-5.38l5.77 0zm-40.54 86.5l45.52 -63.62 8.19 0 0 78.83 -9.97 0 0 -62.51 -44.74 62.51 -8.97 0 0 -78.83 9.97 0 0 63.62z"/>
  <polygon id="36" class="fil1 str0" points="1837.81,414.32 1810.67,414.32 1810.67,484.27 1800.71,484.27 1800.71,414.32 1773.58,414.32 1773.58,405.43 1837.81,405.43 "/>
  <path id="37" class="fil1 str0" d="M1894.18 484.82c-5.54,0 -10.58,-1.13 -15.12,-3.39 -4.54,-2.25 -8.44,-5.25 -11.69,-8.99 -3.25,-3.73 -5.75,-8.01 -7.53,-12.82 -1.77,-4.81 -2.65,-9.74 -2.65,-14.76 0,-5.26 0.94,-10.29 2.82,-15.1 1.89,-4.81 4.49,-9.07 7.81,-12.77 3.32,-3.7 7.25,-6.64 11.79,-8.83 4.54,-2.18 9.47,-3.28 14.79,-3.28 5.54,0 10.56,1.17 15.06,3.5 4.5,2.33 8.38,5.38 11.63,9.16 3.25,3.78 5.77,8.05 7.54,12.82 1.76,4.77 2.65,9.64 2.65,14.6 0,5.26 -0.94,10.29 -2.82,15.1 -1.88,4.81 -4.47,9.05 -7.75,12.71 -3.28,3.67 -7.2,6.59 -11.74,8.77 -4.54,2.18 -9.47,3.28 -14.78,3.28zm-26.92 -39.97c0,3.99 0.65,7.86 1.93,11.6 1.3,3.73 3.12,7.05 5.49,9.93 2.36,2.89 5.2,5.18 8.53,6.88 3.32,1.7 7.01,2.56 11.08,2.56 4.21,0 7.97,-0.91 11.29,-2.72 3.32,-1.82 6.15,-4.19 8.47,-7.11 2.33,-2.92 4.1,-6.24 5.32,-9.94 1.21,-3.7 1.83,-7.44 1.83,-11.21 0,-4 -0.65,-7.87 -1.94,-11.6 -1.29,-3.74 -3.14,-7.03 -5.54,-9.89 -2.4,-2.85 -5.23,-5.12 -8.52,-6.83 -3.29,-1.7 -6.93,-2.55 -10.91,-2.55 -4.21,0 -7.98,0.89 -11.29,2.67 -3.32,1.78 -6.15,4.11 -8.48,6.99 -2.33,2.89 -4.12,6.18 -5.37,9.89 -1.25,3.7 -1.88,7.48 -1.88,11.32z"/>
  <path id="38" class="fil1 str0" d="M2018.76 463.95c0,3.03 -0.61,5.81 -1.83,8.33 -1.22,2.51 -2.88,4.66 -4.99,6.44 -2.1,1.78 -4.54,3.15 -7.31,4.11 -2.77,0.96 -5.74,1.44 -8.91,1.44l-37.32 0 0 -78.83 39.09 0c2.73,0 5.2,0.59 7.42,1.78 2.21,1.18 4.09,2.72 5.65,4.61 1.55,1.89 2.74,4.03 3.6,6.44 0.85,2.41 1.27,4.83 1.27,7.28 0,3.92 -0.97,7.55 -2.93,10.88 -1.95,3.33 -4.74,5.81 -8.36,7.44 4.5,1.34 8.07,3.8 10.69,7.38 2.62,3.59 3.93,7.83 3.93,12.71zm-10.08 -1.78c0,-1.78 -0.31,-3.5 -0.94,-5.17 -0.63,-1.66 -1.48,-3.12 -2.54,-4.38 -1.08,-1.26 -2.34,-2.26 -3.82,-3 -1.48,-0.74 -3.11,-1.11 -4.88,-1.11l-28.12 0 0 27.09 27.35 0c1.84,0 3.54,-0.37 5.09,-1.11 1.55,-0.74 2.91,-1.72 4.1,-2.94 1.18,-1.22 2.1,-2.65 2.77,-4.27 0.66,-1.63 0.99,-3.33 0.99,-5.11zm-40.3 -48.08l0 26.32 25.02 0c1.77,0 3.39,-0.36 4.87,-1.06 1.47,-0.7 2.76,-1.64 3.82,-2.83 1.08,-1.18 1.92,-2.57 2.55,-4.16 0.63,-1.6 0.94,-3.28 0.94,-5.05 0,-1.86 -0.3,-3.59 -0.89,-5.22 -0.59,-1.63 -1.38,-3.03 -2.38,-4.22 -0.99,-1.18 -2.22,-2.11 -3.65,-2.77 -1.44,-0.67 -2.97,-1 -4.6,-1l-25.69 0z"/>
  <polygon id="39" class="fil1 str0" points="2106.57,405.43 2169.26,405.43 2169.26,484.27 2159.28,484.27 2159.28,414.32 2116.54,414.32 2116.54,484.27 2106.57,484.27 "/>
  <path id="40" class="fil1 str0" d="M2235.71 484.82c-5.54,0 -10.58,-1.13 -15.12,-3.39 -4.54,-2.25 -8.44,-5.25 -11.69,-8.99 -3.25,-3.73 -5.75,-8.01 -7.53,-12.82 -1.77,-4.81 -2.66,-9.74 -2.66,-14.76 0,-5.26 0.94,-10.29 2.82,-15.1 1.89,-4.81 4.49,-9.07 7.81,-12.77 3.32,-3.7 7.25,-6.64 11.79,-8.83 4.54,-2.18 9.47,-3.28 14.78,-3.28 5.54,0 10.56,1.17 15.07,3.5 4.5,2.33 8.38,5.38 11.63,9.16 3.25,3.78 5.76,8.05 7.54,12.82 1.76,4.77 2.65,9.64 2.65,14.6 0,5.26 -0.94,10.29 -2.82,15.1 -1.88,4.81 -4.47,9.05 -7.75,12.71 -3.28,3.67 -7.2,6.59 -11.74,8.77 -4.54,2.18 -9.47,3.28 -14.78,3.28zm-26.92 -39.97c0,3.99 0.65,7.86 1.93,11.6 1.3,3.73 3.12,7.05 5.49,9.93 2.36,2.89 5.2,5.18 8.53,6.88 3.32,1.7 7.01,2.56 11.07,2.56 4.21,0 7.98,-0.91 11.3,-2.72 3.32,-1.82 6.15,-4.19 8.47,-7.11 2.33,-2.92 4.1,-6.24 5.32,-9.94 1.21,-3.7 1.83,-7.44 1.83,-11.21 0,-4 -0.65,-7.87 -1.94,-11.6 -1.29,-3.74 -3.14,-7.03 -5.54,-9.89 -2.4,-2.85 -5.24,-5.12 -8.52,-6.83 -3.29,-1.7 -6.93,-2.55 -10.91,-2.55 -4.21,0 -7.97,0.89 -11.29,2.67 -3.32,1.78 -6.15,4.11 -8.47,6.99 -2.33,2.89 -4.12,6.18 -5.37,9.89 -1.25,3.7 -1.88,7.48 -1.88,11.32z"/>
  <path id="41" class="fil1 str0" d="M2291.3 475.38l0.99 0c1.55,-0.07 3.03,-0.35 4.43,-0.83 1.41,-0.48 2.7,-1.35 3.88,-2.6 1.18,-1.26 2.29,-3.02 3.32,-5.28 1.04,-2.26 1.99,-5.16 2.88,-8.71 0.89,-3.55 1.68,-7.87 2.38,-12.94 0.7,-5.07 1.34,-11.08 1.93,-18.04l1.77 -21.54 41.64 0 0 69.95 12.18 0 0 29.53 -8.86 0 0 -20.65 -57.69 0 0 20.65 -8.86 0 0 -29.53zm53.26 0l0 -61.07 -22.37 0 -1.11 13.1c-1.11,13.25 -2.68,23.71 -4.71,31.36 -2.03,7.66 -4.74,13.2 -8.14,16.6l36.33 0z"/>
  <polygon id="42" class="fil1 str0" points="2459.62,439.74 2469.59,439.74 2495.39,405.43 2506.8,405.43 2478.78,443.52 2509.34,484.27 2497.94,484.27 2470.69,448.62 2459.62,448.62 2459.62,484.27 2449.65,484.27 2449.65,405.43 2459.62,405.43 "/>
  <path id="43" class="fil1 str0" d="M2553.97 427.42c-0.88,10.21 -1.99,18.95 -3.32,26.2 -1.33,7.25 -3.06,13.21 -5.2,17.88 -2.14,4.67 -4.71,8.09 -7.7,10.27 -2.99,2.18 -6.59,3.28 -10.79,3.28l-1.77 -9.66c1.55,-0.07 3.03,-0.35 4.43,-0.83 1.4,-0.48 2.7,-1.35 3.87,-2.6 1.18,-1.26 2.28,-3.02 3.32,-5.28 1.03,-2.26 1.99,-5.16 2.88,-8.71 0.88,-3.55 1.68,-7.87 2.38,-12.94 0.7,-5.07 1.35,-11.08 1.94,-18.04l1.77 -21.54 41.64 0 0 78.83 -9.97 0 0 -69.95 -22.37 0 -1.11 13.1z"/>
  <path id="44" class="fil1 str0" d="M2681.1 484.82c-4.88,0 -9.34,-0.87 -13.4,-2.61 -4.06,-1.74 -7.6,-4.18 -10.63,-7.33 -3.03,-3.14 -5.46,-6.92 -7.31,-11.32 -1.84,-4.4 -2.96,-9.27 -3.32,-14.6l-14.18 0 0 35.31 -9.97 0 0 -78.83 9.97 0 0 34.65 14.29 0c0.44,-5.41 1.62,-10.27 3.54,-14.61 1.92,-4.33 4.43,-8.01 7.54,-11.05 3.09,-3.03 6.66,-5.38 10.68,-7.05 4.02,-1.67 8.36,-2.5 13.02,-2.5 5.31,0 10.16,1 14.56,3 4.39,2 8.16,4.79 11.29,8.39 3.14,3.59 5.58,7.83 7.31,12.71 1.73,4.89 2.6,10.22 2.6,15.99 0,6.07 -0.9,11.57 -2.71,16.49 -1.81,4.93 -4.32,9.11 -7.52,12.55 -3.21,3.44 -7.02,6.11 -11.42,8 -4.39,1.89 -9.17,2.83 -14.33,2.83zm-24.7 -39.97c0,4.88 0.59,9.23 1.78,13.04 1.18,3.81 2.85,7.05 5.03,9.72 2.18,2.67 4.78,4.7 7.81,6.11 3.03,1.4 6.42,2.11 10.19,2.11 3.99,0 7.58,-0.74 10.8,-2.22 3.21,-1.48 5.92,-3.59 8.13,-6.33 2.22,-2.74 3.92,-5.99 5.09,-9.77 1.18,-3.78 1.77,-8 1.77,-12.65 0,-4.89 -0.62,-9.23 -1.88,-13.05 -1.25,-3.81 -3.02,-7.03 -5.31,-9.66 -2.29,-2.63 -5,-4.64 -8.14,-6.05 -3.14,-1.41 -6.63,-2.11 -10.47,-2.11 -3.84,0 -7.29,0.74 -10.36,2.22 -3.06,1.48 -5.67,3.55 -7.81,6.22 -2.14,2.67 -3.78,5.9 -4.93,9.72 -1.14,3.81 -1.72,8.05 -1.72,12.71z"/>
  <path id="45" class="fil1 str0" d="M2785.54 405.43l10.07 0 0 78.83 -10.07 0 0 -33.31c-1.26,0.45 -2.51,0.85 -3.77,1.22 -1.25,0.37 -2.62,0.69 -4.09,0.94 -1.47,0.26 -3.12,0.45 -4.93,0.56 -1.81,0.11 -3.86,0.17 -6.15,0.17 -4.57,0 -8.45,-0.69 -11.63,-2.05 -3.18,-1.37 -5.72,-3.28 -7.64,-5.72 -1.92,-2.45 -3.3,-5.31 -4.15,-8.61 -0.85,-3.29 -1.28,-6.87 -1.28,-10.71l0 -21.32 10.08 0 0 19.43c0,3.7 0.26,6.83 0.78,9.38 0.51,2.56 1.41,4.6 2.71,6.16 1.29,1.55 2.99,2.68 5.09,3.38 2.1,0.7 4.74,1.06 7.92,1.06 4.21,0 7.74,-0.39 10.57,-1.17 2.85,-0.78 5,-1.76 6.48,-2.94l0 -35.31z"/>
 </g>
</svg>
