<?xml version="1.0" encoding="UTF-8"?>
<!DOCTYPE svg PUBLIC "-//W3C//DTD SVG 1.1//EN" "http://www.w3.org/Graphics/SVG/1.1/DTD/svg11.dtd">
<!-- Creator: CorelDRAW 2018 -->
<svg xmlns="http://www.w3.org/2000/svg" xml:space="preserve" width="600px" height="113px" version="1.1" style="shape-rendering:geometricPrecision; text-rendering:geometricPrecision; image-rendering:optimizeQuality; fill-rule:evenodd; clip-rule:evenodd"
viewBox="0 0 362.59 68.14"
 xmlns:xlink="http://www.w3.org/1999/xlink">
 <defs>
  <style type="text/css">
   <![CDATA[
    .str0 {stroke:white;stroke-width:0.6;stroke-miterlimit:22.9256}
    .fil1 {fill:none;fill-rule:nonzero}
    .fil0 {fill:white;fill-rule:nonzero}
   ]]>
  </style>
 </defs>
 <g id="Слой_x0020_1">
  <metadata id="CorelCorpID_0Corel-Layer"/>
  <g>
   <path class="fil0" d="M55.76 1.83l-54.85 0 0 -1.83 54.85 0 0.92 0.91 -0.92 0.92zm0 -1.83l0.92 0 0 0.91 -0.92 -0.91zm-0.91 67.22l0 -66.31 1.83 0 0 66.31 -0.92 0.92 -0.91 -0.92zm1.83 0l0 0.92 -0.92 0 0.92 -0.92zm-55.77 -0.91l54.85 0 0 1.83 -54.85 0 -0.91 -0.92 0.91 -0.91zm0 1.83l-0.91 0 0 -0.92 0.91 0.92zm0.92 -67.23l0 66.31 -1.83 0 0 -66.31 0.91 -0.91 0.92 0.91zm-1.83 0l0 -0.91 0.91 0 -0.91 0.91zm11.24 32.06l-10.82 -6.86 0.98 -1.55 10.82 6.86 0.04 1.52 -1.02 0.03zm1.02 -0.03l-0.51 0.36 -0.51 -0.33 1.02 -0.03zm43.8 -31.08l-43.8 31.08 -1.06 -1.49 43.8 -31.08 1.06 1.49zm-44.93 8.92l-10.81 -9.17 1.19 -1.39 10.81 9.16 -0.41 1.59 -0.78 -0.19zm0.78 0.19l-0.44 0.09 -0.34 -0.28 0.78 0.19zm43.77 -9.03l-43.77 9.03 -0.37 -1.79 43.77 -9.03 0.37 1.79zm-44.47 20.13l-10.81 -7.34 1.03 -1.51 10.81 7.34 -0.13 1.58 -0.9 -0.07zm0.9 0.07l-0.47 0.22 -0.43 -0.29 0.9 0.07zm43.8 -20.2l-43.8 20.2 -0.77 -1.66 43.8 -20.2 0.77 1.66z"/>
  </g>
  <polygon class="fil0" points="76.84,39.46 76.84,11.99 95.68,11.99 95.68,18.56 84.38,18.56 84.38,23.13 93.59,23.13 93.59,29.24 84.38,29.24 84.38,39.46 "/>
  <path id="1" class="fil0" d="M108.04 39.46l0 -27.47 12.62 0c1.34,0 2.58,0.27 3.71,0.83 1.14,0.55 2.11,1.28 2.92,2.17 0.82,0.89 1.45,1.9 1.92,3.05 0.46,1.15 0.69,2.3 0.69,3.47 0,1.6 -0.34,3.08 -1.04,4.46 -0.7,1.39 -1.66,2.51 -2.9,3.39l5.8 10.1 -8.51 0 -4.84 -8.44 -2.82 0 0 8.44 -7.55 0zm7.55 -15.01l4.76 0c0.46,0 0.89,-0.26 1.29,-0.78 0.4,-0.51 0.6,-1.24 0.6,-2.16 0,-0.96 -0.23,-1.69 -0.69,-2.19 -0.47,-0.5 -0.93,-0.76 -1.4,-0.76l-4.56 0 0 5.89z"/>
  <polygon id="2" class="fil0" points="163.16,32.88 163.16,39.46 143.58,39.46 143.58,11.99 162.81,11.99 162.81,18.56 151.12,18.56 151.12,22.43 161.11,22.43 161.11,28.55 151.12,28.55 151.12,32.88 "/>
  <polygon id="3" class="fil0" points="195.68,32.88 195.68,39.46 176.1,39.46 176.1,11.99 195.33,11.99 195.33,18.56 183.64,18.56 183.64,22.43 193.63,22.43 193.63,28.55 183.64,28.55 183.64,32.88 "/>
  <path id="4" class="fil0" d="M225.26 20.96c-0.78,-0.46 -1.58,-0.87 -2.4,-1.23 -0.7,-0.31 -1.48,-0.6 -2.34,-0.88 -0.87,-0.27 -1.71,-0.4 -2.54,-0.4 -0.67,0 -1.2,0.1 -1.6,0.31 -0.4,0.2 -0.6,0.55 -0.6,1.04 0,0.36 0.11,0.66 0.34,0.89 0.24,0.23 0.57,0.45 1.01,0.64 0.44,0.19 0.97,0.38 1.61,0.56 0.63,0.18 1.34,0.4 2.14,0.66 1.27,0.39 2.41,0.81 3.43,1.28 1.02,0.46 1.89,1.01 2.61,1.64 0.72,0.63 1.28,1.4 1.66,2.3 0.39,0.91 0.58,2 0.58,3.29 0,1.65 -0.3,3.04 -0.9,4.16 -0.61,1.12 -1.41,2.02 -2.4,2.69 -1,0.67 -2.12,1.16 -3.37,1.45 -1.25,0.3 -2.51,0.45 -3.77,0.45 -1.01,0 -2.04,-0.08 -3.1,-0.23 -1.06,-0.16 -2.11,-0.38 -3.15,-0.66 -1.05,-0.29 -2.05,-0.62 -3.02,-1.01 -0.97,-0.38 -1.86,-0.82 -2.69,-1.31l3.25 -6.62c0.9,0.57 1.84,1.07 2.83,1.51 0.82,0.39 1.76,0.73 2.8,1.04 1.05,0.31 2.11,0.47 3.19,0.47 0.83,0 1.4,-0.11 1.72,-0.33 0.33,-0.22 0.49,-0.51 0.49,-0.87 0,-0.39 -0.16,-0.72 -0.49,-0.99 -0.32,-0.27 -0.76,-0.51 -1.33,-0.71 -0.57,-0.21 -1.22,-0.42 -1.95,-0.62 -0.74,-0.21 -1.52,-0.45 -2.35,-0.74 -1.21,-0.41 -2.25,-0.86 -3.13,-1.33 -0.88,-0.48 -1.6,-1.02 -2.17,-1.63 -0.56,-0.61 -0.98,-1.29 -1.25,-2.07 -0.28,-0.77 -0.41,-1.66 -0.41,-2.67 0,-1.52 0.28,-2.86 0.83,-4.02 0.56,-1.16 1.31,-2.13 2.27,-2.91 0.95,-0.77 2.04,-1.36 3.26,-1.76 1.23,-0.4 2.53,-0.6 3.89,-0.6 1.01,0 1.99,0.1 2.94,0.29 0.96,0.2 1.88,0.44 2.77,0.74 0.89,0.3 1.72,0.62 2.5,0.97 0.77,0.35 1.47,0.67 2.09,0.98l-3.25 6.23z"/>
  <polygon id="5" class="fil0" points="263.31,18.56 255.42,18.56 255.42,39.46 247.87,39.46 247.87,18.56 239.94,18.56 239.94,11.99 263.31,11.99 "/>
  <polygon id="6" class="fil0" points="281.05,11.99 285.96,23.87 290.99,11.99 299.2,11.99 289.71,30.37 289.71,39.46 282.21,39.46 282.21,30.29 272.88,11.99 "/>
  <polygon id="7" class="fil0" points="310.66,39.46 310.66,11.99 318.21,11.99 318.21,32.88 330.67,32.88 330.67,39.46 "/>
  <polygon id="8" class="fil0" points="362.3,32.88 362.3,39.46 342.72,39.46 342.72,11.99 361.95,11.99 361.95,18.56 350.26,18.56 350.26,22.43 360.25,22.43 360.25,28.55 350.26,28.55 350.26,32.88 "/>
  <path class="fil0 str0" d="M31.84 33.23l0 1.55c-2.13,0 -3.94,0.73 -5.43,2.2 -1.48,1.47 -2.23,3.33 -2.23,5.57l0 14.49 7.72 0 0 1.54 -7.72 0 0 8.64 -1.76 0 0 -24.67c0,-2.72 0.92,-4.95 2.75,-6.7 1.84,-1.74 4.06,-2.62 6.67,-2.62z"/>
  <path class="fil0 str0" d="M40.41 43.54c-0.96,0 -1.8,0.31 -2.54,0.94 -0.73,0.62 -1.1,1.39 -1.1,2.31 0,0.92 0.42,1.76 1.24,2.53 0.83,0.78 1.82,1.48 2.98,2.13 1.15,0.64 2.32,1.33 3.5,2.06 1.17,0.74 2.17,1.67 3,2.81 0.83,1.14 1.24,2.44 1.24,3.91 0,2.17 -0.82,4.02 -2.45,5.54 -0.65,0.6 -1.34,1.09 -2.1,1.45l-7.67 0 -0.26 -0.13c-1.27,-0.64 -2.2,-1.49 -2.78,-2.56l0 -2.64c1.39,3.08 3.63,4.63 6.72,4.63 1.91,0 3.52,-0.59 4.82,-1.77 1.3,-1.17 1.96,-2.49 1.96,-3.94 0,-1.45 -0.42,-2.67 -1.24,-3.66 -0.83,-0.99 -1.83,-1.84 -3.01,-2.54 -1.17,-0.69 -2.34,-1.38 -3.5,-2.06 -1.15,-0.68 -2.14,-1.51 -2.97,-2.48 -0.83,-0.98 -1.24,-2.11 -1.24,-3.42 0,-1.3 0.52,-2.4 1.57,-3.3 1.05,-0.9 2.4,-1.35 4.05,-1.35 1.65,0 3.07,0.64 4.24,1.92l0 2.26c-1.17,-1.76 -2.66,-2.64 -4.46,-2.64z"/>
  <path class="fil0" d="M76.94 62.76l0 -10.22 4.25 0c0.45,0 0.86,0.1 1.24,0.28 0.38,0.19 0.7,0.44 0.98,0.75 0.27,0.31 0.48,0.66 0.64,1.05 0.15,0.39 0.23,0.78 0.23,1.19 0,0.42 -0.08,0.83 -0.22,1.22 -0.14,0.39 -0.35,0.74 -0.61,1.05 -0.26,0.31 -0.58,0.55 -0.95,0.73 -0.37,0.19 -0.77,0.28 -1.22,0.28l-3.05 0 0 3.67 -1.29 0zm1.29 -4.82l2.97 0c0.27,0 0.51,-0.06 0.73,-0.17 0.21,-0.11 0.4,-0.26 0.55,-0.46 0.15,-0.2 0.27,-0.42 0.36,-0.68 0.09,-0.26 0.13,-0.53 0.13,-0.82 0,-0.3 -0.05,-0.58 -0.15,-0.84 -0.1,-0.26 -0.24,-0.48 -0.4,-0.67 -0.17,-0.19 -0.37,-0.34 -0.59,-0.45 -0.23,-0.11 -0.46,-0.16 -0.71,-0.16l-2.89 0 0 4.25z"/>
  <path id="1" class="fil0" d="M90.25 52.54l1.09 0 4.16 10.22 -1.38 0 -1.2 -3 -4.28 0 -1.19 3 -1.38 0 4.18 -10.22zm2.38 6.22l-1.84 -4.72 -1.89 4.72 3.73 0z"/>
  <path id="2" class="fil0" d="M98.15 53.75c0.33,-0.43 0.71,-0.75 1.16,-0.96 0.44,-0.22 1,-0.32 1.66,-0.32 0.94,0 1.68,0.21 2.2,0.62 0.52,0.41 0.78,1.01 0.78,1.8 0,0.58 -0.14,1.08 -0.43,1.5 -0.29,0.42 -0.69,0.69 -1.2,0.81 0.63,0.08 1.13,0.33 1.52,0.77 0.38,0.43 0.57,0.99 0.57,1.68 0,0.46 -0.09,0.88 -0.27,1.27 -0.17,0.39 -0.42,0.73 -0.73,1.01 -0.32,0.28 -0.69,0.5 -1.12,0.66 -0.43,0.16 -0.9,0.24 -1.41,0.24 -0.68,0 -1.28,-0.14 -1.81,-0.42 -0.52,-0.28 -0.93,-0.67 -1.2,-1.18l1.03 -0.76c0.22,0.36 0.49,0.65 0.82,0.86 0.32,0.21 0.73,0.32 1.22,0.32 0.31,0 0.6,-0.05 0.87,-0.14 0.26,-0.1 0.49,-0.23 0.68,-0.4 0.19,-0.17 0.34,-0.37 0.45,-0.6 0.11,-0.24 0.16,-0.5 0.16,-0.77 0,-0.61 -0.24,-1.09 -0.72,-1.44 -0.48,-0.35 -1.16,-0.52 -2.02,-0.52l-0.77 0 0 -1.15 0.77 0c0.72,0 1.29,-0.15 1.7,-0.43 0.41,-0.29 0.61,-0.69 0.61,-1.21 0,-0.47 -0.16,-0.82 -0.48,-1.05 -0.32,-0.23 -0.72,-0.35 -1.21,-0.35 -0.43,0 -0.82,0.09 -1.16,0.25 -0.35,0.17 -0.61,0.41 -0.81,0.72l-0.86 -0.81z"/>
  <path id="3" class="fil0" d="M108.24 62.76l0 -10.22 4.25 0c0.45,0 0.86,0.1 1.24,0.28 0.38,0.19 0.7,0.44 0.98,0.75 0.27,0.31 0.48,0.66 0.64,1.05 0.15,0.39 0.23,0.78 0.23,1.19 0,0.42 -0.08,0.83 -0.22,1.22 -0.14,0.39 -0.35,0.74 -0.61,1.05 -0.26,0.31 -0.58,0.55 -0.95,0.73 -0.36,0.19 -0.77,0.28 -1.22,0.28l-3.05 0 0 3.67 -1.29 0zm1.29 -4.82l2.97 0c0.27,0 0.51,-0.06 0.73,-0.17 0.22,-0.11 0.4,-0.26 0.55,-0.46 0.16,-0.2 0.28,-0.42 0.36,-0.68 0.09,-0.26 0.13,-0.53 0.13,-0.82 0,-0.3 -0.05,-0.58 -0.15,-0.84 -0.1,-0.26 -0.24,-0.48 -0.4,-0.67 -0.17,-0.19 -0.37,-0.34 -0.59,-0.45 -0.23,-0.11 -0.46,-0.16 -0.71,-0.16l-2.89 0 0 4.25z"/>
  <path id="4" class="fil0" d="M121.55 52.54l1.09 0 4.16 10.22 -1.38 0 -1.2 -3 -4.28 0 -1.19 3 -1.38 0 4.18 -10.22zm2.38 6.22l-1.84 -4.72 -1.89 4.72 3.73 0z"/>
  <path id="5" class="fil0" d="M130.19 52.54l7.16 0 0 1.15 -5.87 0 0 3.05 3.4 0c0.41,0 0.8,0.07 1.15,0.2 0.36,0.13 0.68,0.32 0.95,0.57 0.27,0.24 0.49,0.56 0.65,0.94 0.16,0.38 0.23,0.81 0.23,1.3 0,0.49 -0.07,0.92 -0.23,1.3 -0.16,0.38 -0.37,0.7 -0.64,0.94 -0.27,0.25 -0.58,0.44 -0.95,0.57 -0.36,0.13 -0.75,0.2 -1.16,0.2l-4.69 0 0 -10.22zm4.69 9.1c0.55,0 0.96,-0.18 1.25,-0.52 0.28,-0.34 0.43,-0.79 0.43,-1.37 0,-0.58 -0.14,-1.03 -0.43,-1.37 -0.28,-0.34 -0.7,-0.52 -1.25,-0.52l-3.4 0 0 3.78 3.4 0z"/>
  <path id="6" class="fil0" d="M145.74 62.83c-0.71,0 -1.37,-0.15 -1.96,-0.44 -0.58,-0.29 -1.09,-0.68 -1.51,-1.17 -0.42,-0.48 -0.75,-1.03 -0.98,-1.66 -0.23,-0.62 -0.34,-1.26 -0.34,-1.91 0,-0.68 0.12,-1.33 0.37,-1.96 0.24,-0.62 0.58,-1.17 1.01,-1.65 0.43,-0.48 0.94,-0.86 1.53,-1.15 0.58,-0.28 1.22,-0.42 1.91,-0.42 0.72,0 1.37,0.15 1.95,0.45 0.59,0.3 1.09,0.7 1.51,1.19 0.42,0.49 0.75,1.04 0.98,1.66 0.23,0.62 0.34,1.25 0.34,1.89 0,0.69 -0.12,1.34 -0.36,1.96 -0.25,0.62 -0.58,1.17 -1.01,1.65 -0.43,0.47 -0.93,0.85 -1.52,1.13 -0.59,0.29 -1.23,0.43 -1.92,0.43zm-3.48 -5.18c0,0.52 0.08,1.02 0.25,1.5 0.16,0.49 0.4,0.92 0.71,1.29 0.3,0.38 0.67,0.67 1.1,0.89 0.43,0.22 0.91,0.33 1.44,0.33 0.54,0 1.03,-0.11 1.46,-0.35 0.43,-0.23 0.8,-0.54 1.1,-0.92 0.3,-0.38 0.53,-0.81 0.69,-1.29 0.16,-0.48 0.24,-0.96 0.24,-1.45 0,-0.52 -0.09,-1.02 -0.26,-1.5 -0.16,-0.49 -0.4,-0.92 -0.71,-1.29 -0.32,-0.36 -0.68,-0.66 -1.11,-0.88 -0.42,-0.22 -0.9,-0.33 -1.41,-0.33 -0.55,0 -1.04,0.11 -1.47,0.34 -0.43,0.23 -0.79,0.54 -1.09,0.91 -0.31,0.38 -0.54,0.8 -0.7,1.28 -0.16,0.48 -0.24,0.97 -0.24,1.47z"/>
  <polygon id="7" class="fil0" points="161.37,53.69 157.86,53.69 157.86,62.76 156.56,62.76 156.56,53.69 153.05,53.69 153.05,52.54 161.37,52.54 "/>
  <polygon id="8" class="fil0" points="166.15,56.99 167.44,56.99 170.79,52.54 172.26,52.54 168.63,57.48 172.59,62.76 171.12,62.76 167.59,58.14 166.15,58.14 166.15,62.76 164.86,62.76 164.86,52.54 166.15,52.54 "/>
  <path id="9" class="fil0" d="M178.87 52.54l1.09 0 4.16 10.22 -1.38 0 -1.2 -3 -4.28 0 -1.19 3 -1.38 0 4.18 -10.22zm2.38 6.22l-1.84 -4.72 -1.89 4.72 3.73 0z"/>
  <path id="10" class="fil0" d="M194.08 57.58c0,-0.62 0.11,-1.23 0.32,-1.84 0.22,-0.61 0.53,-1.15 0.95,-1.64 0.41,-0.48 0.92,-0.87 1.53,-1.17 0.6,-0.3 1.28,-0.45 2.05,-0.45 0.91,0 1.69,0.21 2.34,0.62 0.65,0.41 1.13,0.95 1.45,1.61l-1.02 0.67c-0.15,-0.33 -0.34,-0.6 -0.55,-0.82 -0.22,-0.22 -0.45,-0.4 -0.71,-0.54 -0.25,-0.13 -0.51,-0.23 -0.78,-0.28 -0.27,-0.06 -0.53,-0.09 -0.79,-0.09 -0.56,0 -1.06,0.12 -1.5,0.35 -0.43,0.24 -0.8,0.54 -1.1,0.92 -0.29,0.38 -0.52,0.81 -0.66,1.28 -0.15,0.48 -0.23,0.96 -0.23,1.43 0,0.54 0.09,1.05 0.27,1.54 0.18,0.48 0.42,0.91 0.74,1.28 0.31,0.38 0.69,0.68 1.12,0.9 0.43,0.22 0.9,0.33 1.4,0.33 0.27,0 0.55,-0.04 0.83,-0.1 0.28,-0.07 0.55,-0.18 0.81,-0.33 0.26,-0.15 0.5,-0.33 0.73,-0.56 0.22,-0.22 0.4,-0.49 0.55,-0.81l1.07 0.59c-0.16,0.38 -0.39,0.72 -0.68,1.01 -0.29,0.3 -0.62,0.54 -0.99,0.74 -0.37,0.21 -0.76,0.36 -1.17,0.47 -0.41,0.1 -0.81,0.15 -1.2,0.15 -0.7,0 -1.34,-0.15 -1.93,-0.46 -0.58,-0.3 -1.08,-0.7 -1.51,-1.2 -0.43,-0.49 -0.76,-1.05 -0.99,-1.68 -0.23,-0.63 -0.35,-1.27 -0.35,-1.92z"/>
  <path id="11" class="fil0" d="M209.46 52.54l1.09 0 4.17 10.22 -1.38 0 -1.21 -3 -4.27 0 -1.2 3 -1.37 0 4.17 -10.22zm2.39 6.22l-1.84 -4.72 -1.9 4.72 3.74 0z"/>
  <path id="12" class="fil0" d="M224.65 49.58c-0.02,0.53 -0.23,0.95 -0.63,1.24 -0.39,0.29 -0.91,0.44 -1.55,0.44 -0.65,0 -1.16,-0.15 -1.56,-0.44 -0.4,-0.29 -0.61,-0.71 -0.63,-1.24l0.76 0c0,0.26 0.14,0.48 0.42,0.68 0.28,0.2 0.62,0.3 1.02,0.3 0.38,0 0.7,-0.1 0.96,-0.29 0.26,-0.18 0.41,-0.41 0.46,-0.69l0.75 0zm-5.26 11.21l5.9 -8.25 1.06 0 0 10.22 -1.29 0 0 -8.1 -5.79 8.1 -1.17 0 0 -10.22 1.29 0 0 8.25z"/>
  <polygon id="13" class="fil0" points="238.17,53.69 234.65,53.69 234.65,62.76 233.36,62.76 233.36,53.69 229.84,53.69 229.84,52.54 238.17,52.54 "/>
  <path id="14" class="fil0" d="M245.47 62.83c-0.72,0 -1.37,-0.15 -1.96,-0.44 -0.59,-0.29 -1.09,-0.68 -1.51,-1.17 -0.42,-0.48 -0.75,-1.03 -0.98,-1.66 -0.23,-0.62 -0.34,-1.26 -0.34,-1.91 0,-0.68 0.12,-1.33 0.36,-1.96 0.25,-0.62 0.58,-1.17 1.02,-1.65 0.43,-0.48 0.93,-0.86 1.52,-1.15 0.59,-0.28 1.23,-0.42 1.92,-0.42 0.72,0 1.37,0.15 1.95,0.45 0.58,0.3 1.09,0.7 1.51,1.19 0.42,0.49 0.74,1.04 0.97,1.66 0.23,0.62 0.35,1.25 0.35,1.89 0,0.69 -0.12,1.34 -0.37,1.96 -0.24,0.62 -0.58,1.17 -1,1.65 -0.43,0.47 -0.94,0.85 -1.52,1.13 -0.59,0.29 -1.23,0.43 -1.92,0.43zm-3.49 -5.18c0,0.52 0.09,1.02 0.25,1.5 0.17,0.49 0.41,0.92 0.71,1.29 0.31,0.38 0.68,0.67 1.11,0.89 0.43,0.22 0.91,0.33 1.44,0.33 0.54,0 1.03,-0.11 1.46,-0.35 0.43,-0.23 0.8,-0.54 1.1,-0.92 0.3,-0.38 0.53,-0.81 0.69,-1.29 0.15,-0.48 0.23,-0.96 0.23,-1.45 0,-0.52 -0.08,-1.02 -0.25,-1.5 -0.17,-0.49 -0.41,-0.92 -0.72,-1.29 -0.31,-0.36 -0.68,-0.66 -1.1,-0.88 -0.43,-0.22 -0.9,-0.33 -1.41,-0.33 -0.55,0 -1.04,0.11 -1.47,0.34 -0.43,0.23 -0.8,0.54 -1.1,0.91 -0.3,0.38 -0.53,0.8 -0.69,1.28 -0.17,0.48 -0.25,0.97 -0.25,1.47z"/>
  <path id="15" class="fil0" d="M261.62 60.12c0,0.4 -0.08,0.76 -0.24,1.08 -0.16,0.33 -0.37,0.61 -0.65,0.84 -0.27,0.23 -0.59,0.41 -0.94,0.53 -0.36,0.12 -0.75,0.19 -1.16,0.19l-4.84 0 0 -10.22 5.07 0c0.35,0 0.67,0.08 0.96,0.23 0.29,0.15 0.53,0.35 0.73,0.6 0.21,0.24 0.36,0.52 0.47,0.83 0.11,0.31 0.17,0.63 0.17,0.95 0,0.5 -0.13,0.97 -0.38,1.41 -0.26,0.43 -0.62,0.75 -1.09,0.96 0.58,0.17 1.05,0.49 1.39,0.96 0.34,0.46 0.51,1.01 0.51,1.64zm-1.31 -0.23c0,-0.23 -0.04,-0.45 -0.12,-0.67 -0.08,-0.21 -0.19,-0.4 -0.33,-0.56 -0.14,-0.17 -0.31,-0.3 -0.5,-0.39 -0.19,-0.1 -0.4,-0.15 -0.63,-0.15l-3.64 0 0 3.52 3.54 0c0.24,0 0.46,-0.05 0.66,-0.15 0.2,-0.09 0.38,-0.22 0.53,-0.38 0.16,-0.16 0.27,-0.34 0.36,-0.55 0.09,-0.22 0.13,-0.44 0.13,-0.67zm-5.22 -6.23l0 3.41 3.24 0c0.23,0 0.44,-0.04 0.63,-0.13 0.19,-0.09 0.36,-0.22 0.5,-0.37 0.14,-0.15 0.24,-0.33 0.33,-0.54 0.08,-0.21 0.12,-0.42 0.12,-0.65 0,-0.24 -0.04,-0.47 -0.12,-0.68 -0.07,-0.21 -0.18,-0.39 -0.31,-0.55 -0.12,-0.15 -0.28,-0.27 -0.47,-0.36 -0.19,-0.08 -0.38,-0.13 -0.59,-0.13l-3.33 0z"/>
  <polygon id="16" class="fil0" points="273,52.54 281.12,52.54 281.12,62.76 279.83,62.76 279.83,53.69 274.29,53.69 274.29,62.76 273,62.76 "/>
  <path id="17" class="fil0" d="M289.73 62.83c-0.72,0 -1.37,-0.15 -1.96,-0.44 -0.59,-0.29 -1.09,-0.68 -1.51,-1.17 -0.42,-0.48 -0.75,-1.03 -0.98,-1.66 -0.23,-0.62 -0.34,-1.26 -0.34,-1.91 0,-0.68 0.12,-1.33 0.36,-1.96 0.25,-0.62 0.58,-1.17 1.01,-1.65 0.43,-0.48 0.94,-0.86 1.53,-1.15 0.59,-0.28 1.23,-0.42 1.92,-0.42 0.72,0 1.37,0.15 1.95,0.45 0.58,0.3 1.09,0.7 1.51,1.19 0.42,0.49 0.74,1.04 0.97,1.66 0.23,0.62 0.35,1.25 0.35,1.89 0,0.69 -0.12,1.34 -0.37,1.96 -0.24,0.62 -0.58,1.17 -1,1.65 -0.43,0.47 -0.94,0.85 -1.52,1.13 -0.59,0.29 -1.23,0.43 -1.92,0.43zm-3.49 -5.18c0,0.52 0.09,1.02 0.25,1.5 0.17,0.49 0.41,0.92 0.71,1.29 0.31,0.38 0.68,0.67 1.11,0.89 0.43,0.22 0.91,0.33 1.43,0.33 0.55,0 1.04,-0.11 1.47,-0.35 0.43,-0.23 0.79,-0.54 1.1,-0.92 0.3,-0.38 0.53,-0.81 0.68,-1.29 0.16,-0.48 0.24,-0.96 0.24,-1.45 0,-0.52 -0.08,-1.02 -0.25,-1.5 -0.17,-0.49 -0.41,-0.92 -0.72,-1.29 -0.31,-0.36 -0.68,-0.66 -1.1,-0.88 -0.43,-0.22 -0.9,-0.33 -1.42,-0.33 -0.54,0 -1.03,0.11 -1.46,0.34 -0.43,0.23 -0.8,0.54 -1.1,0.91 -0.3,0.38 -0.53,0.8 -0.69,1.28 -0.17,0.48 -0.25,0.97 -0.25,1.47z"/>
  <path id="18" class="fil0" d="M296.93 61.61l0.13 0c0.2,-0.01 0.4,-0.05 0.58,-0.11 0.18,-0.06 0.35,-0.18 0.5,-0.34 0.15,-0.16 0.3,-0.39 0.43,-0.68 0.13,-0.3 0.26,-0.67 0.37,-1.13 0.12,-0.46 0.22,-1.02 0.31,-1.68 0.09,-0.66 0.18,-1.44 0.25,-2.34l0.23 -2.79 5.4 0 0 9.07 1.58 0 0 3.82 -1.15 0 0 -2.67 -7.48 0 0 2.67 -1.15 0 0 -3.82zm6.91 0l0 -7.92 -2.9 0 -0.15 1.7c-0.14,1.72 -0.34,3.07 -0.61,4.06 -0.26,1 -0.61,1.72 -1.05,2.16l4.71 0z"/>
  <polygon id="19" class="fil0" points="318.75,56.99 320.04,56.99 323.38,52.54 324.86,52.54 321.23,57.48 325.19,62.76 323.71,62.76 320.18,58.14 318.75,58.14 318.75,62.76 317.46,62.76 317.46,52.54 318.75,52.54 "/>
  <path id="20" class="fil0" d="M330.97 55.39c-0.11,1.32 -0.25,2.46 -0.43,3.4 -0.17,0.94 -0.39,1.71 -0.67,2.31 -0.28,0.61 -0.61,1.05 -1,1.33 -0.38,0.29 -0.85,0.43 -1.4,0.43l-0.23 -1.25c0.2,-0.01 0.4,-0.05 0.58,-0.11 0.18,-0.06 0.35,-0.18 0.5,-0.34 0.15,-0.16 0.3,-0.39 0.43,-0.68 0.13,-0.3 0.26,-0.67 0.37,-1.13 0.12,-0.46 0.22,-1.02 0.31,-1.68 0.09,-0.66 0.18,-1.44 0.25,-2.34l0.23 -2.79 5.4 0 0 10.22 -1.29 0 0 -9.07 -2.9 0 -0.15 1.7z"/>
  <path id="21" class="fil0" d="M347.45 62.83c-0.63,0 -1.21,-0.11 -1.74,-0.34 -0.52,-0.22 -0.98,-0.54 -1.37,-0.95 -0.4,-0.41 -0.71,-0.9 -0.95,-1.47 -0.24,-0.57 -0.38,-1.2 -0.43,-1.89l-1.84 0 0 4.58 -1.29 0 0 -10.22 1.29 0 0 4.49 1.85 0c0.06,-0.7 0.21,-1.33 0.46,-1.89 0.25,-0.56 0.58,-1.04 0.98,-1.43 0.4,-0.4 0.86,-0.7 1.38,-0.92 0.52,-0.21 1.09,-0.32 1.69,-0.32 0.69,0 1.32,0.13 1.89,0.39 0.56,0.26 1.05,0.62 1.46,1.08 0.41,0.47 0.72,1.02 0.95,1.65 0.22,0.64 0.33,1.33 0.33,2.07 0,0.79 -0.11,1.5 -0.35,2.14 -0.23,0.64 -0.56,1.18 -0.97,1.63 -0.42,0.44 -0.91,0.79 -1.48,1.03 -0.57,0.25 -1.19,0.37 -1.86,0.37zm-3.2 -5.18c0,0.63 0.08,1.2 0.23,1.69 0.15,0.49 0.37,0.91 0.65,1.26 0.28,0.34 0.62,0.61 1.01,0.79 0.4,0.18 0.84,0.27 1.32,0.27 0.52,0 0.99,-0.09 1.4,-0.28 0.42,-0.2 0.77,-0.47 1.06,-0.82 0.29,-0.36 0.51,-0.78 0.66,-1.27 0.15,-0.49 0.23,-1.04 0.23,-1.64 0,-0.63 -0.08,-1.2 -0.25,-1.69 -0.16,-0.5 -0.39,-0.91 -0.68,-1.25 -0.3,-0.34 -0.65,-0.6 -1.06,-0.79 -0.41,-0.18 -0.86,-0.27 -1.36,-0.27 -0.49,0 -0.94,0.09 -1.34,0.29 -0.39,0.19 -0.73,0.46 -1.01,0.8 -0.28,0.35 -0.49,0.77 -0.64,1.26 -0.15,0.5 -0.22,1.05 -0.22,1.65z"/>
  <path id="22" class="fil0" d="M360.98 52.54l1.31 0 0 10.22 -1.31 0 0 -4.32c-0.16,0.06 -0.32,0.11 -0.48,0.16 -0.17,0.05 -0.34,0.09 -0.53,0.12 -0.2,0.03 -0.41,0.06 -0.64,0.07 -0.24,0.02 -0.5,0.02 -0.8,0.02 -0.59,0 -1.1,-0.08 -1.51,-0.26 -0.41,-0.18 -0.74,-0.43 -0.99,-0.74 -0.25,-0.32 -0.43,-0.69 -0.54,-1.12 -0.11,-0.42 -0.16,-0.89 -0.16,-1.39l0 -2.76 1.31 0 0 2.52c0,0.48 0.03,0.88 0.1,1.22 0.06,0.33 0.18,0.59 0.35,0.79 0.16,0.21 0.38,0.35 0.66,0.44 0.27,0.09 0.61,0.14 1.02,0.14 0.55,0 1.01,-0.05 1.37,-0.15 0.37,-0.1 0.65,-0.23 0.84,-0.38l0 -4.58z"/>
  <path id="23" class="fil1 str0" d="M76.94 62.76l0 -10.22 4.25 0c0.45,0 0.86,0.1 1.24,0.28 0.38,0.19 0.7,0.44 0.98,0.75 0.27,0.31 0.48,0.66 0.64,1.05 0.15,0.39 0.23,0.78 0.23,1.19 0,0.42 -0.08,0.83 -0.22,1.22 -0.14,0.39 -0.35,0.74 -0.61,1.05 -0.26,0.31 -0.58,0.55 -0.95,0.73 -0.37,0.19 -0.77,0.28 -1.22,0.28l-3.05 0 0 3.67 -1.29 0zm1.29 -4.82l2.97 0c0.27,0 0.51,-0.06 0.73,-0.17 0.21,-0.11 0.4,-0.26 0.55,-0.46 0.15,-0.2 0.27,-0.42 0.36,-0.68 0.09,-0.26 0.13,-0.53 0.13,-0.82 0,-0.3 -0.05,-0.58 -0.15,-0.84 -0.1,-0.26 -0.24,-0.48 -0.4,-0.67 -0.17,-0.19 -0.37,-0.34 -0.59,-0.45 -0.23,-0.11 -0.46,-0.16 -0.71,-0.16l-2.89 0 0 4.25z"/>
  <path id="24" class="fil1 str0" d="M90.25 52.54l1.09 0 4.16 10.22 -1.38 0 -1.2 -3 -4.28 0 -1.19 3 -1.38 0 4.18 -10.22zm2.38 6.22l-1.84 -4.72 -1.89 4.72 3.73 0z"/>
  <path id="25" class="fil1 str0" d="M98.15 53.75c0.33,-0.43 0.71,-0.75 1.16,-0.96 0.44,-0.22 1,-0.32 1.66,-0.32 0.94,0 1.68,0.21 2.2,0.62 0.52,0.41 0.78,1.01 0.78,1.8 0,0.58 -0.14,1.08 -0.43,1.5 -0.29,0.42 -0.69,0.69 -1.2,0.81 0.63,0.08 1.13,0.33 1.52,0.77 0.38,0.43 0.57,0.99 0.57,1.68 0,0.46 -0.09,0.88 -0.27,1.27 -0.17,0.39 -0.42,0.73 -0.73,1.01 -0.32,0.28 -0.69,0.5 -1.12,0.66 -0.43,0.16 -0.9,0.24 -1.41,0.24 -0.68,0 -1.28,-0.14 -1.81,-0.42 -0.52,-0.28 -0.93,-0.67 -1.2,-1.18l1.03 -0.76c0.22,0.36 0.49,0.65 0.82,0.86 0.32,0.21 0.73,0.32 1.22,0.32 0.31,0 0.6,-0.05 0.87,-0.14 0.26,-0.1 0.49,-0.23 0.68,-0.4 0.19,-0.17 0.34,-0.37 0.45,-0.6 0.11,-0.24 0.16,-0.5 0.16,-0.77 0,-0.61 -0.24,-1.09 -0.72,-1.44 -0.48,-0.35 -1.16,-0.52 -2.02,-0.52l-0.77 0 0 -1.15 0.77 0c0.72,0 1.29,-0.15 1.7,-0.43 0.41,-0.29 0.61,-0.69 0.61,-1.21 0,-0.47 -0.16,-0.82 -0.48,-1.05 -0.32,-0.23 -0.72,-0.35 -1.21,-0.35 -0.43,0 -0.82,0.09 -1.16,0.25 -0.35,0.17 -0.61,0.41 -0.81,0.72l-0.86 -0.81z"/>
  <path id="26" class="fil1 str0" d="M108.24 62.76l0 -10.22 4.25 0c0.45,0 0.86,0.1 1.24,0.28 0.38,0.19 0.7,0.44 0.98,0.75 0.27,0.31 0.48,0.66 0.64,1.05 0.15,0.39 0.23,0.78 0.23,1.19 0,0.42 -0.08,0.83 -0.22,1.22 -0.14,0.39 -0.35,0.74 -0.61,1.05 -0.26,0.31 -0.58,0.55 -0.95,0.73 -0.36,0.19 -0.77,0.28 -1.22,0.28l-3.05 0 0 3.67 -1.29 0zm1.29 -4.82l2.97 0c0.27,0 0.51,-0.06 0.73,-0.17 0.22,-0.11 0.4,-0.26 0.55,-0.46 0.16,-0.2 0.28,-0.42 0.36,-0.68 0.09,-0.26 0.13,-0.53 0.13,-0.82 0,-0.3 -0.05,-0.58 -0.15,-0.84 -0.1,-0.26 -0.24,-0.48 -0.4,-0.67 -0.17,-0.19 -0.37,-0.34 -0.59,-0.45 -0.23,-0.11 -0.46,-0.16 -0.71,-0.16l-2.89 0 0 4.25z"/>
  <path id="27" class="fil1 str0" d="M121.55 52.54l1.09 0 4.16 10.22 -1.38 0 -1.2 -3 -4.28 0 -1.19 3 -1.38 0 4.18 -10.22zm2.38 6.22l-1.84 -4.72 -1.89 4.72 3.73 0z"/>
  <path id="28" class="fil1 str0" d="M130.19 52.54l7.16 0 0 1.15 -5.87 0 0 3.05 3.4 0c0.41,0 0.8,0.07 1.15,0.2 0.36,0.13 0.68,0.32 0.95,0.57 0.27,0.24 0.49,0.56 0.65,0.94 0.16,0.38 0.23,0.81 0.23,1.3 0,0.49 -0.07,0.92 -0.23,1.3 -0.16,0.38 -0.37,0.7 -0.64,0.94 -0.27,0.25 -0.58,0.44 -0.95,0.57 -0.36,0.13 -0.75,0.2 -1.16,0.2l-4.69 0 0 -10.22zm4.69 9.1c0.55,0 0.96,-0.18 1.25,-0.52 0.28,-0.34 0.43,-0.79 0.43,-1.37 0,-0.58 -0.14,-1.03 -0.43,-1.37 -0.28,-0.34 -0.7,-0.52 -1.25,-0.52l-3.4 0 0 3.78 3.4 0z"/>
  <path id="29" class="fil1 str0" d="M145.74 62.83c-0.71,0 -1.37,-0.15 -1.96,-0.44 -0.58,-0.29 -1.09,-0.68 -1.51,-1.17 -0.42,-0.48 -0.75,-1.03 -0.98,-1.66 -0.23,-0.62 -0.34,-1.26 -0.34,-1.91 0,-0.68 0.12,-1.33 0.37,-1.96 0.24,-0.62 0.58,-1.17 1.01,-1.65 0.43,-0.48 0.94,-0.86 1.53,-1.15 0.58,-0.28 1.22,-0.42 1.91,-0.42 0.72,0 1.37,0.15 1.95,0.45 0.59,0.3 1.09,0.7 1.51,1.19 0.42,0.49 0.75,1.04 0.98,1.66 0.23,0.62 0.34,1.25 0.34,1.89 0,0.69 -0.12,1.34 -0.36,1.96 -0.25,0.62 -0.58,1.17 -1.01,1.65 -0.43,0.47 -0.93,0.85 -1.52,1.13 -0.59,0.29 -1.23,0.43 -1.92,0.43zm-3.48 -5.18c0,0.52 0.08,1.02 0.25,1.5 0.16,0.49 0.4,0.92 0.71,1.29 0.3,0.38 0.67,0.67 1.1,0.89 0.43,0.22 0.91,0.33 1.44,0.33 0.54,0 1.03,-0.11 1.46,-0.35 0.43,-0.23 0.8,-0.54 1.1,-0.92 0.3,-0.38 0.53,-0.81 0.69,-1.29 0.16,-0.48 0.24,-0.96 0.24,-1.45 0,-0.52 -0.09,-1.02 -0.26,-1.5 -0.16,-0.49 -0.4,-0.92 -0.71,-1.29 -0.32,-0.36 -0.68,-0.66 -1.11,-0.88 -0.42,-0.22 -0.9,-0.33 -1.41,-0.33 -0.55,0 -1.04,0.11 -1.47,0.34 -0.43,0.23 -0.79,0.54 -1.09,0.91 -0.31,0.38 -0.54,0.8 -0.7,1.28 -0.16,0.48 -0.24,0.97 -0.24,1.47z"/>
  <polygon id="30" class="fil1 str0" points="161.37,53.69 157.86,53.69 157.86,62.76 156.56,62.76 156.56,53.69 153.05,53.69 153.05,52.54 161.37,52.54 "/>
  <polygon id="31" class="fil1 str0" points="166.15,56.99 167.44,56.99 170.79,52.54 172.26,52.54 168.63,57.48 172.59,62.76 171.12,62.76 167.59,58.14 166.15,58.14 166.15,62.76 164.86,62.76 164.86,52.54 166.15,52.54 "/>
  <path id="32" class="fil1 str0" d="M178.87 52.54l1.09 0 4.16 10.22 -1.38 0 -1.2 -3 -4.28 0 -1.19 3 -1.38 0 4.18 -10.22zm2.38 6.22l-1.84 -4.72 -1.89 4.72 3.73 0z"/>
  <path id="33" class="fil1 str0" d="M194.08 57.58c0,-0.62 0.11,-1.23 0.32,-1.84 0.22,-0.61 0.53,-1.15 0.95,-1.64 0.41,-0.48 0.92,-0.87 1.53,-1.17 0.6,-0.3 1.28,-0.45 2.05,-0.45 0.91,0 1.69,0.21 2.34,0.62 0.65,0.41 1.13,0.95 1.45,1.61l-1.02 0.67c-0.15,-0.33 -0.34,-0.6 -0.55,-0.82 -0.22,-0.22 -0.45,-0.4 -0.71,-0.54 -0.25,-0.13 -0.51,-0.23 -0.78,-0.28 -0.27,-0.06 -0.53,-0.09 -0.79,-0.09 -0.56,0 -1.06,0.12 -1.5,0.35 -0.43,0.24 -0.8,0.54 -1.1,0.92 -0.29,0.38 -0.52,0.81 -0.66,1.28 -0.15,0.48 -0.23,0.96 -0.23,1.43 0,0.54 0.09,1.05 0.27,1.54 0.18,0.48 0.42,0.91 0.74,1.28 0.31,0.38 0.69,0.68 1.12,0.9 0.43,0.22 0.9,0.33 1.4,0.33 0.27,0 0.55,-0.04 0.83,-0.1 0.28,-0.07 0.55,-0.18 0.81,-0.33 0.26,-0.15 0.5,-0.33 0.73,-0.56 0.22,-0.22 0.4,-0.49 0.55,-0.81l1.07 0.59c-0.16,0.38 -0.39,0.72 -0.68,1.01 -0.29,0.3 -0.62,0.54 -0.99,0.74 -0.37,0.21 -0.76,0.36 -1.17,0.47 -0.41,0.1 -0.81,0.15 -1.2,0.15 -0.7,0 -1.34,-0.15 -1.93,-0.46 -0.58,-0.3 -1.08,-0.7 -1.51,-1.2 -0.43,-0.49 -0.76,-1.05 -0.99,-1.68 -0.23,-0.63 -0.35,-1.27 -0.35,-1.92z"/>
  <path id="34" class="fil1 str0" d="M209.46 52.54l1.09 0 4.17 10.22 -1.38 0 -1.21 -3 -4.27 0 -1.2 3 -1.37 0 4.17 -10.22zm2.39 6.22l-1.84 -4.72 -1.9 4.72 3.74 0z"/>
  <path id="35" class="fil1 str0" d="M224.65 49.58c-0.02,0.53 -0.23,0.95 -0.63,1.24 -0.39,0.29 -0.91,0.44 -1.55,0.44 -0.65,0 -1.16,-0.15 -1.56,-0.44 -0.4,-0.29 -0.61,-0.71 -0.63,-1.24l0.76 0c0,0.26 0.14,0.48 0.42,0.68 0.28,0.2 0.62,0.3 1.02,0.3 0.38,0 0.7,-0.1 0.96,-0.29 0.26,-0.18 0.41,-0.41 0.46,-0.69l0.75 0zm-5.26 11.21l5.9 -8.25 1.06 0 0 10.22 -1.29 0 0 -8.1 -5.79 8.1 -1.17 0 0 -10.22 1.29 0 0 8.25z"/>
  <polygon id="36" class="fil1 str0" points="238.17,53.69 234.65,53.69 234.65,62.76 233.36,62.76 233.36,53.69 229.84,53.69 229.84,52.54 238.17,52.54 "/>
  <path id="37" class="fil1 str0" d="M245.47 62.83c-0.72,0 -1.37,-0.15 -1.96,-0.44 -0.59,-0.29 -1.09,-0.68 -1.51,-1.17 -0.42,-0.48 -0.75,-1.03 -0.98,-1.66 -0.23,-0.62 -0.34,-1.26 -0.34,-1.91 0,-0.68 0.12,-1.33 0.36,-1.96 0.25,-0.62 0.58,-1.17 1.02,-1.65 0.43,-0.48 0.93,-0.86 1.52,-1.15 0.59,-0.28 1.23,-0.42 1.92,-0.42 0.72,0 1.37,0.15 1.95,0.45 0.58,0.3 1.09,0.7 1.51,1.19 0.42,0.49 0.74,1.04 0.97,1.66 0.23,0.62 0.35,1.25 0.35,1.89 0,0.69 -0.12,1.34 -0.37,1.96 -0.24,0.62 -0.58,1.17 -1,1.65 -0.43,0.47 -0.94,0.85 -1.52,1.13 -0.59,0.29 -1.23,0.43 -1.92,0.43zm-3.49 -5.18c0,0.52 0.09,1.02 0.25,1.5 0.17,0.49 0.41,0.92 0.71,1.29 0.31,0.38 0.68,0.67 1.11,0.89 0.43,0.22 0.91,0.33 1.44,0.33 0.54,0 1.03,-0.11 1.46,-0.35 0.43,-0.23 0.8,-0.54 1.1,-0.92 0.3,-0.38 0.53,-0.81 0.69,-1.29 0.15,-0.48 0.23,-0.96 0.23,-1.45 0,-0.52 -0.08,-1.02 -0.25,-1.5 -0.17,-0.49 -0.41,-0.92 -0.72,-1.29 -0.31,-0.36 -0.68,-0.66 -1.1,-0.88 -0.43,-0.22 -0.9,-0.33 -1.41,-0.33 -0.55,0 -1.04,0.11 -1.47,0.34 -0.43,0.23 -0.8,0.54 -1.1,0.91 -0.3,0.38 -0.53,0.8 -0.69,1.28 -0.17,0.48 -0.25,0.97 -0.25,1.47z"/>
  <path id="38" class="fil1 str0" d="M261.62 60.12c0,0.4 -0.08,0.76 -0.24,1.08 -0.16,0.33 -0.37,0.61 -0.65,0.84 -0.27,0.23 -0.59,0.41 -0.94,0.53 -0.36,0.12 -0.75,0.19 -1.16,0.19l-4.84 0 0 -10.22 5.07 0c0.35,0 0.67,0.08 0.96,0.23 0.29,0.15 0.53,0.35 0.73,0.6 0.21,0.24 0.36,0.52 0.47,0.83 0.11,0.31 0.17,0.63 0.17,0.95 0,0.5 -0.13,0.97 -0.38,1.41 -0.26,0.43 -0.62,0.75 -1.09,0.96 0.58,0.17 1.05,0.49 1.39,0.96 0.34,0.46 0.51,1.01 0.51,1.64zm-1.31 -0.23c0,-0.23 -0.04,-0.45 -0.12,-0.67 -0.08,-0.21 -0.19,-0.4 -0.33,-0.56 -0.14,-0.17 -0.31,-0.3 -0.5,-0.39 -0.19,-0.1 -0.4,-0.15 -0.63,-0.15l-3.64 0 0 3.52 3.54 0c0.24,0 0.46,-0.05 0.66,-0.15 0.2,-0.09 0.38,-0.22 0.53,-0.38 0.16,-0.16 0.27,-0.34 0.36,-0.55 0.09,-0.22 0.13,-0.44 0.13,-0.67zm-5.22 -6.23l0 3.41 3.24 0c0.23,0 0.44,-0.04 0.63,-0.13 0.19,-0.09 0.36,-0.22 0.5,-0.37 0.14,-0.15 0.24,-0.33 0.33,-0.54 0.08,-0.21 0.12,-0.42 0.12,-0.65 0,-0.24 -0.04,-0.47 -0.12,-0.68 -0.07,-0.21 -0.18,-0.39 -0.31,-0.55 -0.12,-0.15 -0.28,-0.27 -0.47,-0.36 -0.19,-0.08 -0.38,-0.13 -0.59,-0.13l-3.33 0z"/>
  <polygon id="39" class="fil1 str0" points="273,52.54 281.12,52.54 281.12,62.76 279.83,62.76 279.83,53.69 274.29,53.69 274.29,62.76 273,62.76 "/>
  <path id="40" class="fil1 str0" d="M289.73 62.83c-0.72,0 -1.37,-0.15 -1.96,-0.44 -0.59,-0.29 -1.09,-0.68 -1.51,-1.17 -0.42,-0.48 -0.75,-1.03 -0.98,-1.66 -0.23,-0.62 -0.34,-1.26 -0.34,-1.91 0,-0.68 0.12,-1.33 0.36,-1.96 0.25,-0.62 0.58,-1.17 1.01,-1.65 0.43,-0.48 0.94,-0.86 1.53,-1.15 0.59,-0.28 1.23,-0.42 1.92,-0.42 0.72,0 1.37,0.15 1.95,0.45 0.58,0.3 1.09,0.7 1.51,1.19 0.42,0.49 0.74,1.04 0.97,1.66 0.23,0.62 0.35,1.25 0.35,1.89 0,0.69 -0.12,1.34 -0.37,1.96 -0.24,0.62 -0.58,1.17 -1,1.65 -0.43,0.47 -0.94,0.85 -1.52,1.13 -0.59,0.29 -1.23,0.43 -1.92,0.43zm-3.49 -5.18c0,0.52 0.09,1.02 0.25,1.5 0.17,0.49 0.41,0.92 0.71,1.29 0.31,0.38 0.68,0.67 1.11,0.89 0.43,0.22 0.91,0.33 1.43,0.33 0.55,0 1.04,-0.11 1.47,-0.35 0.43,-0.23 0.79,-0.54 1.1,-0.92 0.3,-0.38 0.53,-0.81 0.68,-1.29 0.16,-0.48 0.24,-0.96 0.24,-1.45 0,-0.52 -0.08,-1.02 -0.25,-1.5 -0.17,-0.49 -0.41,-0.92 -0.72,-1.29 -0.31,-0.36 -0.68,-0.66 -1.1,-0.88 -0.43,-0.22 -0.9,-0.33 -1.42,-0.33 -0.54,0 -1.03,0.11 -1.46,0.34 -0.43,0.23 -0.8,0.54 -1.1,0.91 -0.3,0.38 -0.53,0.8 -0.69,1.28 -0.17,0.48 -0.25,0.97 -0.25,1.47z"/>
  <path id="41" class="fil1 str0" d="M296.93 61.61l0.13 0c0.2,-0.01 0.4,-0.05 0.58,-0.11 0.18,-0.06 0.35,-0.18 0.5,-0.34 0.15,-0.16 0.3,-0.39 0.43,-0.68 0.13,-0.3 0.26,-0.67 0.37,-1.13 0.12,-0.46 0.22,-1.02 0.31,-1.68 0.09,-0.66 0.18,-1.44 0.25,-2.34l0.23 -2.79 5.4 0 0 9.07 1.58 0 0 3.82 -1.15 0 0 -2.67 -7.48 0 0 2.67 -1.15 0 0 -3.82zm6.91 0l0 -7.92 -2.9 0 -0.15 1.7c-0.14,1.72 -0.34,3.07 -0.61,4.06 -0.26,1 -0.61,1.72 -1.05,2.16l4.71 0z"/>
  <polygon id="42" class="fil1 str0" points="318.75,56.99 320.04,56.99 323.38,52.54 324.86,52.54 321.23,57.48 325.19,62.76 323.71,62.76 320.18,58.14 318.75,58.14 318.75,62.76 317.46,62.76 317.46,52.54 318.75,52.54 "/>
  <path id="43" class="fil1 str0" d="M330.97 55.39c-0.11,1.32 -0.25,2.46 -0.43,3.4 -0.17,0.94 -0.39,1.71 -0.67,2.31 -0.28,0.61 -0.61,1.05 -1,1.33 -0.38,0.29 -0.85,0.43 -1.4,0.43l-0.23 -1.25c0.2,-0.01 0.4,-0.05 0.58,-0.11 0.18,-0.06 0.35,-0.18 0.5,-0.34 0.15,-0.16 0.3,-0.39 0.43,-0.68 0.13,-0.3 0.26,-0.67 0.37,-1.13 0.12,-0.46 0.22,-1.02 0.31,-1.68 0.09,-0.66 0.18,-1.44 0.25,-2.34l0.23 -2.79 5.4 0 0 10.22 -1.29 0 0 -9.07 -2.9 0 -0.15 1.7z"/>
  <path id="44" class="fil1 str0" d="M347.45 62.83c-0.63,0 -1.21,-0.11 -1.74,-0.34 -0.52,-0.22 -0.98,-0.54 -1.37,-0.95 -0.4,-0.41 -0.71,-0.9 -0.95,-1.47 -0.24,-0.57 -0.38,-1.2 -0.43,-1.89l-1.84 0 0 4.58 -1.29 0 0 -10.22 1.29 0 0 4.49 1.85 0c0.06,-0.7 0.21,-1.33 0.46,-1.89 0.25,-0.56 0.58,-1.04 0.98,-1.43 0.4,-0.4 0.86,-0.7 1.38,-0.92 0.52,-0.21 1.09,-0.32 1.69,-0.32 0.69,0 1.32,0.13 1.89,0.39 0.56,0.26 1.05,0.62 1.46,1.08 0.41,0.47 0.72,1.02 0.95,1.65 0.22,0.64 0.33,1.33 0.33,2.07 0,0.79 -0.11,1.5 -0.35,2.14 -0.23,0.64 -0.56,1.18 -0.97,1.63 -0.42,0.44 -0.91,0.79 -1.48,1.03 -0.57,0.25 -1.19,0.37 -1.86,0.37zm-3.2 -5.18c0,0.63 0.08,1.2 0.23,1.69 0.15,0.49 0.37,0.91 0.65,1.26 0.28,0.34 0.62,0.61 1.01,0.79 0.4,0.18 0.84,0.27 1.32,0.27 0.52,0 0.99,-0.09 1.4,-0.28 0.42,-0.2 0.77,-0.47 1.06,-0.82 0.29,-0.36 0.51,-0.78 0.66,-1.27 0.15,-0.49 0.23,-1.04 0.23,-1.64 0,-0.63 -0.08,-1.2 -0.25,-1.69 -0.16,-0.5 -0.39,-0.91 -0.68,-1.25 -0.3,-0.34 -0.65,-0.6 -1.06,-0.79 -0.41,-0.18 -0.86,-0.27 -1.36,-0.27 -0.49,0 -0.94,0.09 -1.34,0.29 -0.39,0.19 -0.73,0.46 -1.01,0.8 -0.28,0.35 -0.49,0.77 -0.64,1.26 -0.15,0.5 -0.22,1.05 -0.22,1.65z"/>
  <path id="45" class="fil1 str0" d="M360.98 52.54l1.31 0 0 10.22 -1.31 0 0 -4.32c-0.16,0.06 -0.32,0.11 -0.48,0.16 -0.17,0.05 -0.34,0.09 -0.53,0.12 -0.2,0.03 -0.41,0.06 -0.64,0.07 -0.24,0.02 -0.5,0.02 -0.8,0.02 -0.59,0 -1.1,-0.08 -1.51,-0.26 -0.41,-0.18 -0.74,-0.43 -0.99,-0.74 -0.25,-0.32 -0.43,-0.69 -0.54,-1.12 -0.11,-0.42 -0.16,-0.89 -0.16,-1.39l0 -2.76 1.31 0 0 2.52c0,0.48 0.03,0.88 0.1,1.22 0.06,0.33 0.18,0.59 0.35,0.79 0.16,0.21 0.38,0.35 0.66,0.44 0.27,0.09 0.61,0.14 1.02,0.14 0.55,0 1.01,-0.05 1.37,-0.15 0.37,-0.1 0.65,-0.23 0.84,-0.38l0 -4.58z"/>
 </g>
</svg>
